<svg width="36" height="33" viewBox="0 0 36 33" fill="none" xmlns="http://www.w3.org/2000/svg">
<path d="M2.22959 28.1396V22.317L16.9444 15.2336C18.5234 14.4795 19.7356 13.8429 20.5811 13.3237C21.439 12.7921 22.0296 12.2976 22.3528 11.8402C22.6761 11.3828 22.8377 10.876 22.8377 10.3197V10.2826C22.8377 9.6645 22.6264 9.13911 22.2036 8.70644C21.7809 8.26141 21.1717 7.92764 20.3759 7.70512C19.5926 7.47024 18.6353 7.3528 17.5039 7.3528C16.2481 7.3528 15.1602 7.50733 14.2401 7.81638C13.3201 8.11307 12.5865 8.5581 12.0394 9.15148C11.5048 9.73249 11.1815 10.4371 11.0696 11.2654L11.051 11.4879H1.72604L1.74469 11.3025C1.96849 9.06494 2.74557 7.16119 4.07593 5.59121C5.41872 4.02123 7.25885 2.8283 9.5963 2.0124C11.9338 1.18415 14.7126 0.77002 17.9328 0.77002C21.0411 0.77002 23.6894 1.11616 25.8777 1.80843C28.0659 2.5007 29.7382 3.50203 30.8945 4.8124C32.0632 6.11042 32.6476 7.68658 32.6476 9.54088V9.57797C32.6476 10.7771 32.3802 11.8588 31.8456 12.823C31.3234 13.7872 30.4655 14.7082 29.2719 15.5859C28.0783 16.4513 26.4807 17.3475 24.4789 18.2747L15.6575 22.5025L17.9701 18.219V24.9131L15.2659 21.6124H33.2071V28.1396H2.22959Z" fill="white"/>
<g filter="url(#filter0_d_584_3097)">
<path d="M16.3541 22.1343L16.7158 23.0666L16.4138 21.1361L16.3541 22.1343ZM16.1909 22.1245L16.2506 21.1263L16.1909 22.1245ZM16.4904 22.1224L16.5069 21.1226L16.4904 22.1224ZM17.4157 22.1378L17.4323 21.1379L17.4157 22.1378ZM18.2381 21.9766L18.6632 22.8817L18.2381 21.9766ZM18.5977 21.8076L18.1726 20.9025L18.5977 21.8076ZM18.9574 21.6387L19.3825 22.5439V22.5439L18.9574 21.6387ZM19.6359 21.2702L19.1055 20.4225L19.6359 21.2702ZM19.9548 21.0707L20.4853 21.9184L19.9548 21.0707ZM20.2737 20.8712L20.8042 21.7189L20.2737 20.8712ZM20.9431 20.6353L20.8401 19.6406L20.9431 20.6353ZM21.2936 20.599L21.3966 21.5937L21.2936 20.599ZM21.6441 20.5627L21.7471 21.5574L21.6441 20.5627ZM22.1418 20.0548L21.1873 19.7568L22.1418 20.0548ZM22.2891 19.5832L21.3345 19.2852L22.2891 19.5832ZM22.4363 19.1116L23.3909 19.4096L22.4363 19.1116ZM23.0224 18.728L23.219 17.7475L23.0224 18.728ZM23.9002 18.904L23.7036 19.8844L23.9002 18.904ZM24.6583 18.6899L25.3455 19.4163L24.6583 18.6899ZM24.9775 18.3879L24.2903 17.6615L24.9775 18.3879ZM25.2968 18.0859L24.6095 17.3594L25.2968 18.0859ZM26.0229 17.8616L26.2107 16.8794L26.0229 17.8616ZM26.8366 18.0172L27.0244 17.035L26.8366 18.0172ZM27.4785 17.7826L28.2777 18.3838L27.4785 17.7826ZM27.9486 17.1578L27.1495 16.5566L27.9486 17.1578ZM29.0071 16.7272L28.8651 15.7374L29.0071 16.7272ZM29.4189 16.6681L29.5609 17.658L29.4189 16.6681ZM30.041 16.2435L29.1742 15.7448L30.041 16.2435ZM30.4617 15.5124L29.5949 15.0137L30.4617 15.5124ZM30.6771 14.7895L29.6772 14.7753L30.6771 14.7895ZM30.6872 14.0748L31.6871 14.089L30.6872 14.0748ZM31.037 13.429L31.6787 14.196L31.037 13.429ZM31.7266 12.8521L31.085 12.0851L31.7266 12.8521ZM31.9637 12.1676L32.9286 11.9051L31.9637 12.1676ZM31.7483 11.3755L30.7833 11.638L31.7483 11.3755ZM31.8802 10.6474L32.6911 11.2326L31.8802 10.6474ZM32.1198 10.3153L31.3089 9.73013L32.1198 10.3153ZM32.3595 9.98325L31.5486 9.39806L32.3595 9.98325ZM32.7031 9.25156L33.6709 9.5034L32.7031 9.25156ZM32.8071 8.85194L31.8393 8.60011L32.8071 8.85194ZM32.9111 8.45232L33.8789 8.70416L32.9111 8.45232ZM32.7923 7.71589L31.9583 8.26754L32.7923 7.71589ZM31.8792 6.41315L31.1126 7.05526L31.8792 6.41315ZM31.6344 6.12086L32.401 5.47874L31.6344 6.12086ZM31.3896 5.82857L30.6229 6.47069L31.3896 5.82857ZM30.8075 5.33274L30.2907 6.18884L30.8075 5.33274ZM30.1332 4.92564L30.65 4.06953L30.1332 4.92564ZM29.6777 4.61543L30.3472 3.87269L29.6777 4.61543ZM29.5594 4.50878L28.8898 5.25152L29.5594 4.50878ZM29.4411 4.40212L28.7715 5.14487L29.4411 4.40212ZM28.9231 4.17037L28.6244 5.1247L28.9231 4.17037ZM28.5235 4.04527L28.2248 4.9996L28.5235 4.04527ZM28.1239 3.92018L28.4227 2.96585L28.1239 3.92018ZM27.467 3.45056L28.2681 2.85208L27.467 3.45056ZM26.9522 2.76153L26.1511 3.36001L26.9522 2.76153ZM25.5954 2.34385L25.529 3.34164L25.5954 2.34385ZM24.9502 2.05336L24.2597 2.77664L24.9502 2.05336ZM24.3928 1.52117L23.7023 2.24444L24.3928 1.52117ZM22.9531 1.59793L22.6699 0.638871L22.9531 1.59793ZM21.8323 1.62475L21.7139 2.61772L21.8323 1.62475ZM21.4654 1.58102L21.5837 0.588048L21.4654 1.58102ZM20.7188 1.42286L21.0073 0.465391L20.7188 1.42286ZM19.9594 1.194L19.6708 2.15147L19.9594 1.194ZM19.389 1.05484L19.2603 2.04653L19.389 1.05484ZM19.1983 1.0301L19.3269 0.0384098L19.1983 1.0301ZM19.0076 1.00536L18.8789 1.99705L19.0076 1.00536ZM18.4253 1.06657L18.2109 0.0898208L18.4253 1.06657ZM18.0338 1.15251L18.2482 2.12926L18.0338 1.15251ZM17.6422 1.23846L17.4278 0.261711L17.6422 1.23846ZM16.9553 1.41355L17.2442 2.3709L16.9553 1.41355ZM15.6912 1.68946L15.6689 0.689707L15.6912 1.68946ZM12.1172 1.81569L12.093 2.8154L12.1172 1.81569ZM10.8262 2.06866L10.5684 1.10244L10.8262 2.06866ZM10.1638 2.37398L10.7081 3.21289L10.1638 2.37398ZM9.8271 2.59244L9.28283 1.75353L9.8271 2.59244ZM9.49038 2.8109L10.0346 3.64981L9.49038 2.8109ZM8.7644 2.89199L8.43161 3.83499L8.7644 2.89199ZM7.98589 2.61725L7.6531 3.56025L7.98589 2.61725ZM7.36163 2.78483L8.15371 3.39525L7.36163 2.78483ZM7.12662 3.08977L7.9187 3.70019L7.12662 3.08977ZM6.89161 3.39471L6.09954 2.78429L6.89161 3.39471ZM6.51702 4.05259L7.44693 4.42037L6.51702 4.05259ZM6.23785 4.75846L5.30793 4.39069L6.23785 4.75846ZM5.65604 5.05057L5.79232 4.0599L5.65604 5.05057ZM4.77161 4.92891L4.63533 5.91958L4.77161 4.92891ZM4.24937 5.29019L5.23187 5.47644L4.24937 5.29019ZM4.08933 6.13441L3.10683 5.94816L4.08933 6.13441ZM3.76129 6.84817L2.99951 6.20033L3.76129 6.84817ZM3.51327 7.13981L2.75149 6.49197L3.51327 7.13981ZM3.26525 7.43145L4.02703 8.07929L3.26525 7.43145ZM3.01921 8.12484L2.01922 8.12978L3.01921 8.12484ZM2.99846 9.6757L2.00143 9.59867L2.99846 9.6757ZM2.97175 10.0213L1.97472 9.94432L2.97175 10.0213ZM2.94505 10.367L3.94208 10.444L2.94505 10.367ZM2.67817 11.1623L3.56022 11.6334L2.67817 11.1623ZM2.438 11.6119L1.55595 11.1407L2.438 11.6119ZM2.19782 12.0615L3.07987 12.5327L2.19782 12.0615ZM3.76505 11.4349L4.06913 10.4823L3.76505 11.4349ZM5.49586 12.0487L5.92386 11.1449L5.49586 12.0487ZM5.89325 12.2369L5.46525 13.1407L5.89325 12.2369ZM6.29064 12.4251L6.71863 11.5213L6.29064 12.4251ZM7.00534 12.4042L7.5555 13.2393L7.00534 12.4042ZM7.32266 12.1952L6.7725 11.3601L7.32266 12.1952ZM7.63998 11.9861L8.19014 12.8212L7.63998 11.9861ZM8.21844 11.776L8.21458 10.7761L8.21844 11.776ZM8.74072 11.774L8.74458 12.774L8.74072 11.774ZM9.37367 11.8613L9.60474 10.8884L9.37367 11.8613ZM10.1173 12.0379L9.8862 13.0109L10.1173 12.0379ZM10.7239 11.8468L9.95822 11.2035V11.2035L10.7239 11.8468ZM11.1934 11.288L10.4278 10.6447L11.1934 11.288ZM11.6826 10.7436L10.9615 10.0509V10.0509L11.6826 10.7436ZM11.9371 10.4787L12.6583 11.1714L11.9371 10.4787ZM12.1916 10.2138L11.4704 9.52103L12.1916 10.2138ZM12.652 9.62916L13.4927 10.1706L12.652 9.62916ZM13.0638 8.98976L12.2231 8.44828L13.0638 8.98976ZM13.6384 8.61307L13.4856 7.62481L13.6384 8.61307ZM14.3757 8.49908L14.5285 9.48734L14.3757 8.49908ZM15.0703 8.50467L14.8818 9.48673L15.0703 8.50467ZM15.7222 8.62984L15.9108 7.64779L15.7222 8.62984ZM16.4667 8.62054L16.2974 7.63497L16.4667 8.62054ZM18.0255 8.24369L18.4951 9.1266L18.0255 8.24369ZM18.6317 7.92133L18.1622 7.03842L18.6317 7.92133ZM19.2764 7.88448L19.6184 6.94478L19.2764 7.88448ZM19.618 8.00881L19.96 7.06911L19.618 8.00881ZM19.9596 8.13314L19.6176 9.07284L19.9596 8.13314ZM20.5143 8.44883L21.1825 7.70486L20.5143 8.44883ZM20.7274 8.64019L20.0592 9.38416L20.7274 8.64019ZM20.9404 8.83155L21.6086 8.08757L20.9404 8.83155ZM21.465 9.12282L21.1597 10.0751L21.465 9.12282ZM21.7766 9.22273L22.082 8.2705L21.7766 9.22273ZM22.0882 9.32265L21.7828 10.2749L22.0882 9.32265ZM22.582 9.76443L23.4644 9.29402L22.582 9.76443ZM22.7642 10.1063L23.6467 9.6359L22.7642 10.1063ZM22.9465 10.4482L22.064 10.9186L22.9465 10.4482ZM22.9969 11.1444L22.0596 10.7958L22.9969 11.1444ZM22.8651 11.4988L21.9278 11.1502L22.8651 11.4988ZM22.7333 11.8532L23.6705 12.2018L22.7333 11.8532ZM22.4399 12.5238L23.3304 12.9787L22.4399 12.5238ZM22.1168 13.1563L21.2263 12.7013L22.1168 13.1563ZM21.66 13.5505L21.9155 14.5173L21.66 13.5505ZM21.0696 13.7065L20.8142 12.7397L21.0696 13.7065ZM20.4627 13.9198L20.8608 14.8371L20.4627 13.9198ZM19.8392 14.1903L20.2373 15.1077L19.8392 14.1903ZM19.2716 14.5772L19.9726 15.2904L19.2716 14.5772ZM18.7597 15.0803L18.0587 14.3671L18.7597 15.0803ZM18.1668 15.4597L18.5215 16.3947L18.1668 15.4597ZM17.8299 15.5875L17.4753 14.6525L17.8299 15.5875ZM17.493 15.7153L17.1383 14.7803L17.493 15.7153ZM16.8633 15.7881L16.6788 16.771L16.8633 15.7881ZM16.2776 15.6782L16.4621 14.6954L16.2776 15.6782ZM15.6757 15.8556L16.2765 16.655V16.655L15.6757 15.8556ZM15.3667 16.0878L15.9674 16.8872L15.3667 16.0878ZM15.0576 16.3201L14.4568 15.5207L15.0576 16.3201ZM14.5163 16.8774L15.33 17.4587L14.5163 16.8774ZM14.052 17.5272L13.2383 16.9459L14.052 17.5272ZM13.4275 17.8741L13.4832 18.8725L13.4275 17.8741ZM13.0352 17.8959L12.9796 16.8975L13.0352 17.8959ZM12.0098 18.2149L11.2573 17.5563L12.0098 18.2149ZM11.7689 18.4901L11.0164 17.8315L11.7689 18.4901ZM11.5281 18.7653L12.2806 19.4238L11.5281 18.7653ZM10.8264 19.0476L10.842 20.0475L10.8264 19.0476ZM9.90476 19.062L9.88919 18.0621L9.90476 19.062ZM9.26762 19.3968L8.387 18.923L9.26762 19.3968ZM8.91502 20.0521L9.79563 20.526L8.91502 20.0521ZM8.30676 20.3104L8.14808 21.2977L8.30676 20.3104ZM7.44286 20.1715L7.28418 21.1589L7.44286 20.1715ZM6.80803 20.4081L7.64145 20.9607L6.80803 20.4081ZM6.60516 20.714L7.43858 21.2667L6.60516 20.714ZM6.40228 21.02L7.2357 21.5726L6.40228 21.02ZM5.85599 21.354L5.93754 22.3507L5.85599 21.354ZM5.51257 21.3821L5.43102 20.3855L5.51257 21.3821ZM5.16915 21.4102L5.2507 22.4069L5.16915 21.4102ZM4.53829 21.6322L5.09741 22.4612L4.53829 21.6322ZM3.96343 22.0198L3.40432 21.1907L3.96343 22.0198ZM3.46861 22.3459L4.00619 23.1891L3.46861 22.3459ZM3.05382 22.6103L2.51623 21.7671L3.05382 22.6103ZM2.65544 23.0056L1.84624 22.4181L2.65544 23.0056ZM2.46447 23.2686L1.65526 22.6811L2.46447 23.2686ZM2.27349 23.5317L3.0827 24.1192L2.27349 23.5317ZM2.05874 24.1465L3.05647 24.2139L2.05874 24.1465ZM2.03497 24.4983L1.03725 24.4309L2.03497 24.4983ZM2.0112 24.85L1.01348 24.7826L2.0112 24.85ZM2.01412 25.5484L3.01117 25.4716L2.01412 25.5484ZM2.06748 26.2415L1.07043 26.3183L2.06748 26.2415ZM2.23184 26.9251L3.15759 26.547L2.23184 26.9251ZM2.50721 27.5992L1.58147 27.9774L2.50721 27.5992ZM2.73912 28.132L3.64012 27.6982L2.73912 28.132ZM2.92756 28.5234L2.02656 28.9572L2.92756 28.5234ZM3.3552 28.8607L2.96426 29.7811L3.3552 28.8607ZM4.02204 29.1439L4.41299 28.2235L4.02204 29.1439ZM4.68669 29.107L5.16123 29.9872L4.68669 29.107ZM5.34914 28.7498L4.8746 27.8696L5.34914 28.7498ZM5.98676 28.4752L6.28607 29.4293L5.98676 28.4752ZM6.29314 28.379L6.59246 29.3332L6.29314 28.379ZM6.59953 28.2829L6.30022 27.3288L6.59953 28.2829ZM7.23666 28.3481L6.79845 29.2469L7.23666 28.3481ZM7.5674 28.5093L8.00562 27.6104L7.5674 28.5093ZM7.89814 28.6705L8.33636 27.7717L7.89814 28.6705ZM9.3267 28.6312L9.14693 27.6475L9.3267 28.6312ZM10.0645 28.5839L10.012 29.5825L10.0645 28.5839ZM10.4364 28.6034L10.4889 27.6048L10.4364 28.6034ZM10.8082 28.623L10.7557 29.6216L10.8082 28.623ZM11.5489 28.4295L12.049 29.2955L11.5489 28.4295ZM12.2865 28.0035L11.7863 27.1376L12.2865 28.0035ZM12.9654 28.0018L13.5285 27.1755L12.9654 28.0018ZM13.2755 28.2132L12.7124 29.0395L13.2755 28.2132ZM13.5856 28.4245L13.0225 29.2509L13.5856 28.4245ZM14.2459 28.7021L14.0601 29.6847L14.2459 28.7021ZM14.9464 28.8346L15.1322 27.852L14.9464 28.8346ZM15.6711 28.832L15.4905 27.8484L15.6711 28.832ZM16.4202 28.6944L16.6009 29.678L16.4202 28.6944ZM17.1051 28.4248L17.6483 29.2644L17.1051 28.4248ZM17.4155 28.224L16.8722 27.3845L17.4155 28.224ZM17.7258 28.0232L18.269 28.8628L17.7258 28.0232ZM18.4522 27.8828L18.3086 28.8725L18.4522 27.8828ZM18.8684 27.9432L19.012 26.9536L18.8684 27.9432ZM19.2845 28.0037L19.1408 28.9933L19.2845 28.0037ZM20.0575 28.1839L19.7392 29.1319L20.0575 28.1839ZM20.4143 28.3037L20.096 29.2517L20.4143 28.3037ZM20.7712 28.4235L21.0895 27.4755L20.7712 28.4235ZM21.4293 28.6927L20.985 29.5886L21.4293 28.6927ZM21.7305 28.8421L22.1748 27.9462L21.7305 28.8421ZM22.0318 28.9914L21.5875 29.8873L22.0318 28.9914ZM22.6339 28.7737L21.8604 28.1399L22.6339 28.7737ZM22.9347 28.4066L23.7081 29.0405L22.9347 28.4066ZM23.2355 28.0395L22.4621 27.4057L23.2355 28.0395ZM23.9063 27.9782L23.2691 28.749L23.9063 27.9782ZM24.2762 28.284L23.639 29.0548L24.2762 28.284ZM24.646 28.5898L25.2832 27.8191L24.646 28.5898ZM25.3438 28.7843L25.0222 27.8374L25.3438 28.7843ZM25.9995 28.5617L26.321 29.5086L25.9995 28.5617ZM26.658 28.5427L26.927 27.5796L26.658 28.5427ZM27.3194 28.7275L27.0504 29.6906L27.3194 28.7275ZM27.9164 28.7364L27.6177 27.7821L27.9164 28.7364ZM28.4491 28.5697L28.7479 29.524L28.4491 28.5697ZM29.0988 28.6391L28.7285 29.568L29.0988 28.6391ZM29.4821 28.7918L29.8523 27.8629L29.4821 28.7918ZM29.8654 28.9446L29.4951 29.8735L29.8654 28.9446ZM30.6679 28.9163L30.2715 27.9983L30.6679 28.9163ZM31.0872 28.7353L30.6907 27.8172L31.0872 28.7353ZM31.5064 28.5542L31.9029 29.4723L31.5064 28.5542ZM32.1878 28.5412L32.7274 27.6993L32.1878 28.5412ZM32.7122 28.8772L32.1726 29.7192L32.7122 28.8772ZM32.9763 28.6733L31.9763 28.668L32.9763 28.6733ZM32.9802 27.9294L33.9802 27.9346L32.9802 27.9294ZM33.0025 27.171L32.0039 27.1182V27.1182L33.0025 27.171ZM33.0229 26.7845L34.0215 26.8372L33.0229 26.7845ZM33.0433 26.398L34.042 26.4507L33.0433 26.398ZM33.2164 25.6249L32.2862 25.2578L33.2164 25.6249ZM33.369 25.2383L32.4388 24.8711L33.369 25.2383ZM33.5216 24.8516L32.5914 24.4845L33.5216 24.8516ZM33.4767 24.1478L32.6278 24.6763L33.4767 24.1478ZM33.2792 23.8305L34.1281 23.302L33.2792 23.8305ZM33.0817 23.5133L33.9306 22.9848L33.0817 23.5133ZM32.7675 22.8717L33.7084 22.5331L32.7675 22.8717ZM32.6507 22.5472L33.5917 22.2086L32.6507 22.5472ZM32.534 22.2228L31.593 22.5613L32.534 22.2228ZM32.0781 21.9248L32.156 22.9218L32.0781 21.9248ZM31.3998 21.9779L31.3219 20.9809L31.3998 21.9779ZM30.6605 21.8806L30.365 22.836L30.6605 21.8806ZM30.2602 21.7568L30.5557 20.8015L30.2602 21.7568ZM29.86 21.6331L30.1555 20.6777L29.86 21.6331ZM29.088 21.5619L29.2283 22.5521L29.088 21.5619ZM27.6424 21.8165L27.3617 20.8567L27.6424 21.8165ZM26.9817 22.0097L27.2623 22.9695L26.9817 22.0097ZM26.2902 21.9942L25.9936 22.9492L26.2902 21.9942ZM25.5679 21.7699L25.8644 20.8149L25.5679 21.7699ZM24.7738 21.6863L24.7081 20.6885L24.7738 21.6863ZM23.196 21.9898L22.5805 21.2017L23.196 21.9898ZM22.9169 22.2078L23.5324 22.9959L22.9169 22.2078ZM22.6378 22.4257L22.0224 21.6375L22.6378 22.4257ZM22.0603 22.7236L21.8014 21.7577L22.0603 22.7236ZM21.7618 22.8036L22.0206 23.7695L21.7618 22.8036ZM21.4634 22.8836L21.7222 23.8495L21.4634 22.8836ZM20.7792 22.8653L21.026 21.8962L20.7792 22.8653ZM20.0077 22.6688L19.7608 23.6378L20.0077 22.6688ZM19.2537 22.4522L18.9478 23.4043L19.2537 22.4522ZM18.5173 22.2156L18.8232 21.2635L18.5173 22.2156ZM17.7607 22.2505L17.3936 21.3204L17.7607 22.2505ZM16.9839 22.5571L16.6168 21.6269L16.9839 22.5571ZM16.4173 22.6415L16.7778 21.7087L16.4173 22.6415ZM16.2391 22.5726L15.8787 23.5054L16.2391 22.5726ZM16.061 22.5038L15.7005 23.4366L16.061 22.5038ZM15.9679 22.5553L16.7844 21.978L15.9679 22.5553ZM16.053 22.6757L15.2365 23.253L15.3101 23.3571L15.4075 23.4395L16.053 22.6757ZM16.3224 22.9033L16.4535 23.8947L18.6942 23.5984L16.9679 22.1395L16.3224 22.9033ZM16.2609 22.1704L16.6225 23.1028L16.7158 23.0666L16.3541 22.1343L15.9925 21.202L15.8993 21.2381L16.2609 22.1704ZM16.3541 22.1343L16.4138 21.1361L16.2506 21.1263L16.1909 22.1245L16.1312 23.1227L16.2945 23.1325L16.3541 22.1343ZM16.1909 22.1245L16.2506 21.1263C16.2396 21.1256 16.2409 21.1256 16.2487 21.1263C16.2506 21.1265 16.268 21.128 16.2917 21.1313C16.3016 21.1327 16.3316 21.137 16.3698 21.1457C16.388 21.1498 16.4262 21.1589 16.4732 21.175C16.494 21.1821 16.6315 21.2267 16.7726 21.3395C16.8447 21.3971 17.0031 21.5391 17.0908 21.7862C17.1969 22.0854 17.1488 22.3926 17.0098 22.6284C16.8956 22.8221 16.7472 22.9251 16.6819 22.9663C16.606 23.0142 16.5396 23.0416 16.5032 23.0554C16.4301 23.0831 16.3702 23.0958 16.348 23.1003C16.3191 23.1062 16.2957 23.1096 16.282 23.1114C16.2369 23.1174 16.2018 23.1186 16.2015 23.1186C16.1874 23.1193 16.1808 23.1192 16.1911 23.1191C16.2272 23.1188 16.3173 23.1197 16.4738 23.1223L16.4904 22.1224L16.5069 21.1226C16.3549 21.1201 16.2409 21.1187 16.1772 21.1191C16.1626 21.1192 16.1375 21.1195 16.1115 21.1207C16.1052 21.1209 16.0658 21.1225 16.018 21.1289C16.0169 21.129 15.9132 21.1402 15.794 21.1854C15.7574 21.1993 15.6909 21.2268 15.6149 21.2747C15.5496 21.3159 15.4011 21.419 15.2869 21.6127C15.1479 21.8486 15.0997 22.1559 15.2059 22.4551C15.2936 22.7023 15.452 22.8443 15.5242 22.902C15.6655 23.0149 15.8032 23.0596 15.8244 23.0668C15.8717 23.0831 15.9103 23.0923 15.9291 23.0965C15.9684 23.1054 15.9999 23.11 16.0116 23.1116C16.0392 23.1155 16.0621 23.1176 16.0711 23.1184C16.093 23.1204 16.115 23.1218 16.1312 23.1227L16.1909 22.1245ZM16.4904 22.1224L16.4738 23.1223L16.9364 23.13L16.953 22.1301L16.9696 21.1303L16.5069 21.1226L16.4904 22.1224ZM16.953 22.1301L16.9364 23.13L17.3991 23.1377L17.4157 22.1378L17.4323 21.1379L16.9696 21.1303L16.953 22.1301ZM17.4157 22.1378L17.3991 23.1377C17.8351 23.1449 18.2643 23.069 18.6632 22.8817L18.2381 21.9766L17.8129 21.0714C17.7323 21.1093 17.6133 21.1409 17.4323 21.1379L17.4157 22.1378ZM18.2381 21.9766L18.6632 22.8817L19.0228 22.7128L18.5977 21.8076L18.1726 20.9025L17.8129 21.0714L18.2381 21.9766ZM18.5977 21.8076L19.0228 22.7128L19.3825 22.5439L18.9574 21.6387L18.5322 20.7336L18.1726 20.9025L18.5977 21.8076ZM18.9574 21.6387L19.3825 22.5439C19.6565 22.4152 19.918 22.2734 20.1664 22.118L19.6359 21.2702L19.1055 20.4225C18.9286 20.5332 18.7378 20.637 18.5322 20.7336L18.9574 21.6387ZM19.6359 21.2702L20.1664 22.118L20.4853 21.9184L19.9548 21.0707L19.4244 20.223L19.1055 20.4225L19.6359 21.2702ZM19.9548 21.0707L20.4853 21.9184L20.8042 21.7189L20.2737 20.8712L19.7433 20.0234L19.4244 20.223L19.9548 21.0707ZM20.2737 20.8712L20.8042 21.7189C20.8963 21.6612 20.9745 21.6374 21.0461 21.63L20.9431 20.6353L20.8401 19.6406C20.4445 19.6816 20.0764 19.815 19.7433 20.0234L20.2737 20.8712ZM20.9431 20.6353L21.0461 21.63L21.3966 21.5937L21.2936 20.599L21.1906 19.6043L20.8401 19.6406L20.9431 20.6353ZM21.2936 20.599L21.3966 21.5937L21.7471 21.5574L21.6441 20.5627L21.5411 19.568L21.1906 19.6043L21.2936 20.599ZM21.6441 20.5627L21.7471 21.5574C22.5379 21.4755 22.9356 20.8678 23.0964 20.3529L22.1418 20.0548L21.1873 19.7568C21.168 19.8184 21.1671 19.7814 21.2295 19.7177C21.2631 19.6834 21.3102 19.6467 21.3708 19.6174C21.4314 19.588 21.4907 19.5733 21.5411 19.568L21.6441 20.5627ZM22.1418 20.0548L23.0964 20.3529L23.2436 19.8812L22.2891 19.5832L21.3345 19.2852L21.1873 19.7568L22.1418 20.0548ZM22.2891 19.5832L23.2436 19.8812L23.3909 19.4096L22.4363 19.1116L21.4818 18.8135L21.3345 19.2852L22.2891 19.5832ZM22.4363 19.1116L23.3909 19.4096C23.3988 19.3843 23.3665 19.5103 23.2041 19.6166C23.0257 19.7334 22.8621 19.7157 22.8258 19.7085L23.0224 18.728L23.219 17.7475C22.8902 17.6816 22.4826 17.6985 22.1088 17.9432C21.7511 18.1773 21.572 18.5245 21.4818 18.8135L22.4363 19.1116ZM23.0224 18.728L22.8258 19.7085L23.2647 19.7964L23.4613 18.816L23.6579 17.8355L23.219 17.7475L23.0224 18.728ZM23.4613 18.816L23.2647 19.7964L23.7036 19.8844L23.9002 18.904L24.0967 17.9235L23.6579 17.8355L23.4613 18.816ZM23.9002 18.904L23.7036 19.8844C24.3075 20.0055 24.8916 19.8457 25.3455 19.4163L24.6583 18.6899L23.971 17.9635C23.9683 17.966 23.973 17.9612 23.9857 17.9537C23.9989 17.946 24.0165 17.938 24.0374 17.9321C24.0832 17.9191 24.1091 17.9259 24.0967 17.9235L23.9002 18.904ZM24.6583 18.6899L25.3455 19.4163L25.6648 19.1143L24.9775 18.3879L24.2903 17.6615L23.971 17.9635L24.6583 18.6899ZM24.9775 18.3879L25.6648 19.1143L25.984 18.8123L25.2968 18.0859L24.6095 17.3594L24.2903 17.6615L24.9775 18.3879ZM25.2968 18.0859L25.984 18.8123C25.9964 18.8005 25.9799 18.8198 25.933 18.8343C25.911 18.841 25.8891 18.8446 25.8694 18.8455C25.8502 18.8463 25.8381 18.8444 25.8351 18.8438L26.0229 17.8616L26.2107 16.8794C25.6017 16.763 25.0392 16.9529 24.6095 17.3594L25.2968 18.0859ZM26.0229 17.8616L25.8351 18.8438L26.2419 18.9216L26.4298 17.9394L26.6176 16.9572L26.2107 16.8794L26.0229 17.8616ZM26.4298 17.9394L26.2419 18.9216L26.6488 18.9994L26.8366 18.0172L27.0244 17.035L26.6176 16.9572L26.4298 17.9394ZM26.8366 18.0172L26.6488 18.9994C26.9244 19.0521 27.2342 19.0499 27.5438 18.9367C27.8573 18.8221 28.1004 18.6194 28.2777 18.3838L27.4785 17.7826L26.6794 17.1814C26.7 17.1541 26.7578 17.0946 26.8573 17.0582C26.953 17.0233 27.0202 17.0342 27.0244 17.035L26.8366 18.0172ZM27.4785 17.7826L28.2777 18.3838L28.5127 18.0714L27.7136 17.4702L26.9145 16.869L26.6794 17.1814L27.4785 17.7826ZM27.7136 17.4702L28.5127 18.0714L28.7477 17.759L27.9486 17.1578L27.1495 16.5566L26.9145 16.869L27.7136 17.4702ZM27.9486 17.1578L28.7477 17.759C28.7491 17.7572 28.7476 17.7594 28.7429 17.7636C28.738 17.768 28.7321 17.7723 28.7259 17.7759C28.7197 17.7794 28.7161 17.7806 28.7165 17.7804C28.7172 17.7802 28.7236 17.7781 28.7374 17.7762L28.5954 16.7863L28.4533 15.7964C27.9356 15.8707 27.4761 16.1224 27.1495 16.5566L27.9486 17.1578ZM28.5954 16.7863L28.7374 17.7762L29.1492 17.7171L29.0071 16.7272L28.8651 15.7374L28.4533 15.7964L28.5954 16.7863ZM29.0071 16.7272L29.1492 17.7171L29.5609 17.658L29.4189 16.6681L29.2769 15.6783L28.8651 15.7374L29.0071 16.7272ZM29.4189 16.6681L29.5609 17.658C30.1446 17.5742 30.6167 17.248 30.9077 16.7422L30.041 16.2435L29.1742 15.7448C29.1701 15.7519 29.1817 15.7303 29.2165 15.7065C29.2324 15.6957 29.2479 15.6881 29.2607 15.6833C29.2731 15.6786 29.2794 15.6779 29.2769 15.6783L29.4189 16.6681ZM30.041 16.2435L30.9077 16.7422L31.1181 16.3767L30.2513 15.8779L29.3846 15.3792L29.1742 15.7448L30.041 16.2435ZM30.2513 15.8779L31.1181 16.3767L31.3284 16.0111L30.4617 15.5124L29.5949 15.0137L29.3846 15.3792L30.2513 15.8779ZM30.4617 15.5124L31.3284 16.0111C31.5382 15.6465 31.6708 15.2404 31.677 14.8036L30.6771 14.7895L29.6772 14.7753C29.6766 14.815 29.6656 14.8909 29.5949 15.0137L30.4617 15.5124ZM30.6771 14.7895L31.677 14.8036L31.682 14.4463L30.6821 14.4322L29.6822 14.418L29.6772 14.7753L30.6771 14.7895ZM30.6821 14.4322L31.682 14.4463L31.6871 14.089L30.6872 14.0748L29.6873 14.0607L29.6822 14.418L30.6821 14.4322ZM30.6872 14.0748L31.6871 14.089C31.6868 14.1097 31.6839 14.1328 31.6777 14.1562C31.6715 14.1795 31.6634 14.1981 31.6564 14.211C31.6428 14.2362 31.6395 14.2287 31.6787 14.196L31.037 13.429L30.3954 12.662C30.0044 12.9891 29.6958 13.4589 29.6873 14.0607L30.6872 14.0748ZM31.037 13.429L31.6787 14.196L32.0235 13.9075L31.3818 13.1405L30.7402 12.3736L30.3954 12.662L31.037 13.429ZM31.3818 13.1405L32.0235 13.9075L32.3683 13.6191L31.7266 12.8521L31.085 12.0851L30.7402 12.3736L31.3818 13.1405ZM31.7266 12.8521L32.3683 13.6191C32.589 13.4345 32.7916 13.1863 32.9032 12.864C33.0171 12.5352 33.0101 12.2045 32.9286 11.9051L31.9637 12.1676L30.9988 12.4301C30.9891 12.3947 30.9785 12.3101 31.0134 12.2095C31.046 12.1153 31.0941 12.0774 31.085 12.0851L31.7266 12.8521ZM31.9637 12.1676L32.9286 11.9051L32.8209 11.5091L31.856 11.7716L30.891 12.034L30.9988 12.4301L31.9637 12.1676ZM31.856 11.7716L32.8209 11.5091L32.7132 11.1131L31.7483 11.3755L30.7833 11.638L30.891 12.034L31.856 11.7716ZM31.7483 11.3755L32.7132 11.1131C32.7121 11.1089 32.7187 11.1333 32.7114 11.1738C32.704 11.2143 32.6891 11.2353 32.6911 11.2326L31.8802 10.6474L31.0693 10.0622C30.7324 10.529 30.6325 11.0834 30.7833 11.638L31.7483 11.3755ZM31.8802 10.6474L32.6911 11.2326L32.9307 10.9005L32.1198 10.3153L31.3089 9.73013L31.0693 10.0622L31.8802 10.6474ZM32.1198 10.3153L32.9307 10.9005L33.1704 10.5685L32.3595 9.98325L31.5486 9.39806L31.3089 9.73013L32.1198 10.3153ZM32.3595 9.98325L33.1704 10.5685C33.4032 10.2458 33.5706 9.88867 33.6709 9.5034L32.7031 9.25156L31.7354 8.99972C31.697 9.14728 31.6353 9.27797 31.5486 9.39806L32.3595 9.98325ZM32.7031 9.25156L33.6709 9.5034L33.7749 9.10378L32.8071 8.85194L31.8393 8.60011L31.7354 8.99972L32.7031 9.25156ZM32.8071 8.85194L33.7749 9.10378L33.8789 8.70416L32.9111 8.45232L31.9433 8.20049L31.8393 8.60011L32.8071 8.85194ZM32.9111 8.45232L33.8789 8.70416C34.0178 8.17015 33.9355 7.63152 33.6264 7.16424L32.7923 7.71589L31.9583 8.26754C31.9603 8.27058 31.9582 8.26796 31.9549 8.25978C31.9515 8.25138 31.9482 8.2403 31.9462 8.22764C31.9441 8.21502 31.944 8.2048 31.9444 8.19845C31.9447 8.19237 31.9454 8.19272 31.9433 8.20049L32.9111 8.45232ZM32.7923 7.71589L33.6264 7.16424L33.4036 6.82742L32.5696 7.37907L31.7355 7.93072L31.9583 8.26754L32.7923 7.71589ZM32.5696 7.37907L33.4036 6.82742L33.1809 6.4906L32.3468 7.04225L31.5127 7.5939L31.7355 7.93072L32.5696 7.37907ZM32.3468 7.04225L33.1809 6.4906C33.0128 6.23649 32.8346 5.99638 32.6458 5.77103L31.8792 6.41315L31.1126 7.05526C31.2503 7.21962 31.3838 7.39892 31.5127 7.5939L32.3468 7.04225ZM31.8792 6.41315L32.6458 5.77103L32.401 5.47874L31.6344 6.12086L30.8678 6.76298L31.1126 7.05526L31.8792 6.41315ZM31.6344 6.12086L32.401 5.47874L32.1562 5.18645L31.3896 5.82857L30.6229 6.47069L30.8678 6.76298L31.6344 6.12086ZM31.3896 5.82857L32.1562 5.18645C31.9197 4.90419 31.6405 4.66748 31.3243 4.47663L30.8075 5.33274L30.2907 6.18884C30.4242 6.26939 30.5329 6.36324 30.6229 6.47069L31.3896 5.82857ZM30.8075 5.33274L31.3243 4.47663L30.9872 4.27308L30.4704 5.12919L29.9536 5.98529L30.2907 6.18884L30.8075 5.33274ZM30.4704 5.12919L30.9872 4.27308L30.65 4.06953L30.1332 4.92564L29.6164 5.78174L29.9536 5.98529L30.4704 5.12919ZM30.1332 4.92564L30.65 4.06953C30.5472 4.00749 30.4696 3.95789 30.4136 3.91978C30.3523 3.87806 30.3374 3.86384 30.3472 3.87269L29.6777 4.61543L29.0081 5.35818C29.1659 5.50045 29.3934 5.64716 29.6164 5.78174L30.1332 4.92564ZM29.6777 4.61543L30.3472 3.87269L30.2289 3.76603L29.5594 4.50878L28.8898 5.25152L29.0081 5.35818L29.6777 4.61543ZM29.5594 4.50878L30.2289 3.76603L30.1106 3.65937L29.4411 4.40212L28.7715 5.14487L28.8898 5.25152L29.5594 4.50878ZM29.4411 4.40212L30.1106 3.65937C29.9554 3.51946 29.7804 3.43156 29.6609 3.37807C29.5264 3.3179 29.3767 3.26449 29.2219 3.21604L28.9231 4.17037L28.6244 5.1247C28.736 5.15964 28.8058 5.18656 28.844 5.20364C28.8624 5.21187 28.8648 5.21401 28.8563 5.20896C28.8498 5.20516 28.8161 5.18506 28.7715 5.14487L29.4411 4.40212ZM28.9231 4.17037L29.2219 3.21604L28.8223 3.09094L28.5235 4.04527L28.2248 4.9996L28.6244 5.1247L28.9231 4.17037ZM28.5235 4.04527L28.8223 3.09094L28.4227 2.96585L28.1239 3.92018L27.8252 4.8745L28.2248 4.9996L28.5235 4.04527ZM28.1239 3.92018L28.4227 2.96585C28.3627 2.94708 28.3175 2.91814 28.2681 2.85208L27.467 3.45056L26.6658 4.04904C26.9597 4.44234 27.3523 4.72648 27.8252 4.8745L28.1239 3.92018ZM27.467 3.45056L28.2681 2.85208L28.0107 2.50756L27.2096 3.10605L26.4085 3.70453L26.6658 4.04904L27.467 3.45056ZM27.2096 3.10605L28.0107 2.50756L27.7534 2.16305L26.9522 2.76153L26.1511 3.36001L26.4085 3.70453L27.2096 3.10605ZM26.9522 2.76153L27.7534 2.16305C27.44 1.74357 26.9815 1.43387 26.3948 1.39483L26.3284 2.39262L26.262 3.39042C26.2485 3.38952 26.2307 3.38674 26.2106 3.38056C26.1905 3.37437 26.1728 3.36621 26.1586 3.35781C26.1297 3.3407 26.1299 3.33163 26.1511 3.36001L26.9522 2.76153ZM26.3284 2.39262L26.3948 1.39483L26.0283 1.37044L25.9619 2.36824L25.8955 3.36603L26.262 3.39042L26.3284 2.39262ZM25.9619 2.36824L26.0283 1.37044L25.6618 1.34606L25.5954 2.34385L25.529 3.34164L25.8955 3.36603L25.9619 2.36824ZM25.5954 2.34385L25.6618 1.34606C25.6569 1.34573 25.6555 1.34525 25.6567 1.34554C25.658 1.34585 25.6598 1.34645 25.6614 1.34719C25.6631 1.34792 25.6625 1.3479 25.6597 1.34595C25.6568 1.34394 25.6504 1.3392 25.6408 1.33009L24.9502 2.05336L24.2597 2.77664C24.6059 3.10722 25.0388 3.30902 25.529 3.34164L25.5954 2.34385ZM24.9502 2.05336L25.6408 1.33009L25.3621 1.06399L24.6715 1.78727L23.981 2.51054L24.2597 2.77664L24.9502 2.05336ZM24.6715 1.78727L25.3621 1.06399L25.0834 0.797891L24.3928 1.52117L23.7023 2.24444L23.981 2.51054L24.6715 1.78727ZM24.3928 1.52117L25.0834 0.797891C24.6239 0.359191 24.0253 0.238596 23.4439 0.410297L23.7271 1.36936L24.0103 2.32841C24.005 2.32999 23.9489 2.34434 23.8647 2.32514C23.778 2.30535 23.7227 2.26395 23.7023 2.24444L24.3928 1.52117ZM23.7271 1.36936L23.4439 0.410297L23.0569 0.524584L23.3401 1.48364L23.6233 2.4427L24.0103 2.32841L23.7271 1.36936ZM23.3401 1.48364L23.0569 0.524584L22.6699 0.638871L22.9531 1.59793L23.2363 2.55699L23.6233 2.4427L23.3401 1.48364ZM22.9531 1.59793L22.6699 0.638871C22.5299 0.680194 22.4154 0.687175 22.3175 0.675513L22.1992 1.66848L22.0808 2.66145C22.4721 2.7081 22.8602 2.66805 23.2363 2.55699L22.9531 1.59793ZM22.1992 1.66848L22.3175 0.675513L21.9506 0.63178L21.8323 1.62475L21.7139 2.61772L22.0808 2.66145L22.1992 1.66848ZM21.8323 1.62475L21.9506 0.63178L21.5837 0.588048L21.4654 1.58102L21.347 2.57399L21.7139 2.61772L21.8323 1.62475ZM21.4654 1.58102L21.5837 0.588048C21.4008 0.566245 21.2089 0.526136 21.0073 0.465391L20.7188 1.42286L20.4302 2.38033C20.735 2.47215 21.0408 2.53748 21.347 2.57399L21.4654 1.58102ZM20.7188 1.42286L21.0073 0.465391L20.6276 0.350963L20.3391 1.30843L20.0505 2.2659L20.4302 2.38033L20.7188 1.42286ZM20.3391 1.30843L20.6276 0.350963L20.2479 0.236535L19.9594 1.194L19.6708 2.15147L20.0505 2.2659L20.3391 1.30843ZM19.9594 1.194L20.2479 0.236535C19.9852 0.157382 19.7301 0.0907103 19.5176 0.0631479L19.389 1.05484L19.2603 2.04653C19.3021 2.05195 19.4272 2.07806 19.6708 2.15147L19.9594 1.194ZM19.389 1.05484L19.5176 0.0631479L19.3269 0.0384098L19.1983 1.0301L19.0696 2.02179L19.2603 2.04653L19.389 1.05484ZM19.1983 1.0301L19.3269 0.0384098L19.1362 0.0136716L19.0076 1.00536L18.8789 1.99705L19.0696 2.02179L19.1983 1.0301ZM19.0076 1.00536L19.1362 0.0136716C18.8271 -0.0264345 18.4895 0.0286683 18.2109 0.0898208L18.4253 1.06657L18.6397 2.04332C18.7462 2.01995 18.8217 2.00802 18.8712 2.00281C18.9265 1.997 18.9217 2.0026 18.8789 1.99705L19.0076 1.00536ZM18.4253 1.06657L18.2109 0.0898208L17.8194 0.175766L18.0338 1.15251L18.2482 2.12926L18.6397 2.04332L18.4253 1.06657ZM18.0338 1.15251L17.8194 0.175766L17.4278 0.261711L17.6422 1.23846L17.8566 2.21521L18.2482 2.12926L18.0338 1.15251ZM17.6422 1.23846L17.4278 0.261711C17.1487 0.322985 16.8938 0.38754 16.6663 0.4562L16.9553 1.41355L17.2442 2.3709C17.4105 2.3207 17.6137 2.26853 17.8566 2.21521L17.6422 1.23846ZM16.9553 1.41355L16.6663 0.4562L16.3709 0.545348L16.6599 1.5027L16.9488 2.46005L17.2442 2.3709L16.9553 1.41355ZM16.6599 1.5027L16.3709 0.545348L16.0756 0.634495L16.3645 1.59185L16.6534 2.5492L16.9488 2.46005L16.6599 1.5027ZM16.3645 1.59185L16.0756 0.634495C15.982 0.662732 15.8499 0.685653 15.6689 0.689707L15.6912 1.68946L15.7136 2.68921C16.0364 2.68198 16.3531 2.63982 16.6534 2.5492L16.3645 1.59185ZM15.6912 1.68946L15.6689 0.689707L15.291 0.69817L15.3134 1.69792L15.3358 2.69767L15.7136 2.68921L15.6912 1.68946ZM15.3134 1.69792L15.291 0.69817L14.9131 0.706633L14.9355 1.70638L14.9579 2.70613L15.3358 2.69767L15.3134 1.69792ZM14.9355 1.70638L14.9131 0.706633C14.6414 0.71272 14.3706 0.726888 14.1009 0.749154L14.1831 1.74576L14.2654 2.74237C14.4951 2.72342 14.7259 2.71133 14.9579 2.70613L14.9355 1.70638ZM14.1831 1.74576L14.1009 0.749154L13.7263 0.780072L13.8086 1.77668L13.8909 2.77329L14.2654 2.74237L14.1831 1.74576ZM13.8086 1.77668L13.7263 0.780072L13.3518 0.81099L13.4341 1.8076L13.5164 2.80421L13.8909 2.77329L13.8086 1.77668ZM13.4341 1.8076L13.3518 0.81099C13.1309 0.829224 12.9375 0.835267 12.7696 0.831202L12.7454 1.83091L12.7212 2.83062C12.9722 2.8367 13.2379 2.8272 13.5164 2.80421L13.4341 1.8076ZM12.7454 1.83091L12.7696 0.831202L12.4555 0.823593L12.4313 1.8233L12.4071 2.82301L12.7212 2.83062L12.7454 1.83091ZM12.4313 1.8233L12.4555 0.823593L12.1414 0.815984L12.1172 1.81569L12.093 2.8154L12.4071 2.82301L12.4313 1.8233ZM12.1172 1.81569L12.1414 0.815984C11.8302 0.808447 11.522 0.848075 11.2197 0.928724L11.4774 1.89494L11.7352 2.86116C11.867 2.82599 11.9853 2.81279 12.093 2.8154L12.1172 1.81569ZM11.4774 1.89494L11.2197 0.928724L10.8941 1.01558L11.1518 1.9818L11.4095 2.94802L11.7352 2.86116L11.4774 1.89494ZM11.1518 1.9818L10.8941 1.01558L10.5684 1.10244L10.8262 2.06866L11.0839 3.03488L11.4095 2.94802L11.1518 1.9818ZM10.8262 2.06866L10.5684 1.10244C10.2325 1.19206 9.9159 1.3428 9.61955 1.53507L10.1638 2.37398L10.7081 3.21289C10.8607 3.11388 10.9857 3.06107 11.0839 3.03488L10.8262 2.06866ZM10.1638 2.37398L9.61955 1.53507L9.28283 1.75353L9.8271 2.59244L10.3714 3.43135L10.7081 3.21289L10.1638 2.37398ZM9.8271 2.59244L9.28283 1.75353L8.9461 1.97199L9.49038 2.8109L10.0346 3.64981L10.3714 3.43135L9.8271 2.59244ZM9.49038 2.8109L8.9461 1.97199C8.95117 1.9687 8.98119 1.95198 9.02951 1.94658C9.07684 1.9413 9.10334 1.95116 9.09719 1.94899L8.7644 2.89199L8.43161 3.83499C8.97405 4.02642 9.54127 3.9699 10.0346 3.64981L9.49038 2.8109ZM8.7644 2.89199L9.09719 1.94899L8.70794 1.81162L8.37515 2.75462L8.04236 3.69762L8.43161 3.83499L8.7644 2.89199ZM8.37515 2.75462L8.70794 1.81162L8.31869 1.67425L7.98589 2.61725L7.6531 3.56025L8.04236 3.69762L8.37515 2.75462ZM7.98589 2.61725L8.31869 1.67425C8.05112 1.57982 7.72289 1.53152 7.37595 1.62465C7.0218 1.71972 6.75529 1.93339 6.56956 2.1744L7.36163 2.78483L8.15371 3.39525C8.12464 3.43296 8.04052 3.51706 7.89446 3.55627C7.7556 3.59354 7.66117 3.5631 7.6531 3.56025L7.98589 2.61725ZM7.36163 2.78483L6.56956 2.1744L6.33455 2.47934L7.12662 3.08977L7.9187 3.70019L8.15371 3.39525L7.36163 2.78483ZM7.12662 3.08977L6.33455 2.47934L6.09954 2.78429L6.89161 3.39471L7.68369 4.00514L7.9187 3.70019L7.12662 3.08977ZM6.89161 3.39471L6.09954 2.78429C5.88663 3.06055 5.71504 3.36134 5.5871 3.68482L6.51702 4.05259L7.44693 4.42037C7.50511 4.27326 7.58325 4.13547 7.68369 4.00514L6.89161 3.39471ZM6.51702 4.05259L5.5871 3.68482L5.44752 4.03775L6.37743 4.40553L7.30735 4.77331L7.44693 4.42037L6.51702 4.05259ZM6.37743 4.40553L5.44752 4.03775L5.30793 4.39069L6.23785 4.75846L7.16776 5.12624L7.30735 4.77331L6.37743 4.40553ZM6.23785 4.75846L5.30793 4.39069C5.33584 4.32013 5.41548 4.19382 5.57391 4.11427C5.71348 4.0442 5.81182 4.06258 5.79232 4.0599L5.65604 5.05057L5.51977 6.04124C5.79508 6.07911 6.13779 6.06909 6.4713 5.90164C6.82367 5.72473 7.0468 5.43209 7.16776 5.12624L6.23785 4.75846ZM5.65604 5.05057L5.79232 4.0599L5.3501 3.99907L5.21382 4.98974L5.07755 5.98041L5.51977 6.04124L5.65604 5.05057ZM5.21382 4.98974L5.3501 3.99907L4.90788 3.93824L4.77161 4.92891L4.63533 5.91958L5.07755 5.98041L5.21382 4.98974ZM4.77161 4.92891L4.90788 3.93824C4.61325 3.89771 4.21434 3.91508 3.85101 4.16643C3.48057 4.4227 3.32475 4.79857 3.26686 5.10394L4.24937 5.29019L5.23187 5.47644C5.22733 5.50042 5.18522 5.67537 4.98886 5.81121C4.89819 5.87394 4.80857 5.90298 4.74106 5.91448C4.67755 5.9253 4.63845 5.92001 4.63533 5.91958L4.77161 4.92891ZM4.24937 5.29019L3.26686 5.10394L3.18685 5.52605L4.16935 5.7123L5.15185 5.89855L5.23187 5.47644L4.24937 5.29019ZM4.16935 5.7123L3.18685 5.52605L3.10683 5.94816L4.08933 6.13441L5.07183 6.32066L5.15185 5.89855L4.16935 5.7123ZM4.08933 6.13441L3.10683 5.94816C3.08176 6.08041 3.03928 6.15356 2.99951 6.20033L3.76129 6.84817L4.52307 7.496C4.814 7.15391 4.99021 6.75123 5.07183 6.32066L4.08933 6.13441ZM3.76129 6.84817L2.99951 6.20033L2.75149 6.49197L3.51327 7.13981L4.27505 7.78765L4.52307 7.496L3.76129 6.84817ZM3.51327 7.13981L2.75149 6.49197L2.50347 6.78362L3.26525 7.43145L4.02703 8.07929L4.27505 7.78765L3.51327 7.13981ZM3.26525 7.43145L2.50347 6.78362C2.17512 7.16972 2.01678 7.63572 2.01922 8.12978L3.01921 8.12484L4.0192 8.1199C4.01912 8.1048 4.02024 8.09532 4.02102 8.09049C4.02178 8.0858 4.02241 8.08432 4.02216 8.08503C4.02207 8.08526 4.02192 8.08565 4.02171 8.0861C4.02151 8.08654 4.02138 8.08676 4.02142 8.08669C4.02146 8.08662 4.02181 8.08603 4.02262 8.08489C4.02343 8.08374 4.02483 8.08187 4.02703 8.07929L3.26525 7.43145ZM3.01921 8.12484L2.01922 8.12978L2.02121 8.53151L3.02119 8.52658L4.02118 8.52164L4.0192 8.1199L3.01921 8.12484ZM3.02119 8.52658L2.02121 8.53151L2.02319 8.93325L3.02318 8.92831L4.02317 8.92338L4.02118 8.52164L3.02119 8.52658ZM3.02318 8.92831L2.02319 8.93325C2.0244 9.17791 2.01683 9.39938 2.00143 9.59867L2.99846 9.6757L3.99549 9.75273C4.0157 9.49116 4.0246 9.21437 4.02317 8.92338L3.02318 8.92831ZM2.99846 9.6757L2.00143 9.59867L1.97472 9.94432L2.97175 10.0213L3.96878 10.0984L3.99549 9.75273L2.99846 9.6757ZM2.97175 10.0213L1.97472 9.94432L1.94802 10.29L2.94505 10.367L3.94208 10.444L3.96878 10.0984L2.97175 10.0213ZM2.94505 10.367L1.94802 10.29C1.94466 10.3334 1.91912 10.4609 1.79612 10.6911L2.67817 11.1623L3.56022 11.6334C3.75746 11.2642 3.90983 10.8614 3.94208 10.444L2.94505 10.367ZM2.67817 11.1623L1.79612 10.6911L1.55595 11.1407L2.438 11.6119L3.32005 12.083L3.56022 11.6334L2.67817 11.1623ZM2.438 11.6119L1.55595 11.1407L1.31578 11.5904L2.19782 12.0615L3.07987 12.5327L3.32005 12.083L2.438 11.6119ZM2.19782 12.0615L1.31578 11.5904C1.26858 11.6787 1.21439 11.7871 1.17426 11.8974C1.15542 11.9492 1.12379 12.0438 1.10823 12.16C1.0996 12.2245 1.0523 12.5623 1.28096 12.8922C1.59766 13.3492 2.08857 13.3508 2.29855 13.3137C2.48789 13.2802 2.62538 13.201 2.67456 13.1718C2.79405 13.1009 2.8978 13.0121 2.96476 12.9522L2.29838 12.2066L1.632 11.461C1.58539 11.5027 1.59977 11.4839 1.65409 11.4517C1.67069 11.4419 1.78164 11.3741 1.95049 11.3442C2.14 11.3107 2.61647 11.3081 2.9248 11.753C3.14508 12.0709 3.09545 12.3887 3.09054 12.4254C3.0787 12.5138 3.05684 12.5727 3.05383 12.581C3.04535 12.6043 3.04702 12.5942 3.07987 12.5327L2.19782 12.0615ZM2.29838 12.2066L2.96476 12.9522L3.30549 12.6477L2.63911 11.9021L1.97273 11.1565L1.632 11.461L2.29838 12.2066ZM2.63911 11.9021L3.30549 12.6477L3.64622 12.3432L2.97984 11.5976L2.31346 10.852L1.97273 11.1565L2.63911 11.9021ZM2.97984 11.5976L3.64622 12.3432C3.6472 12.3423 3.61382 12.3705 3.54935 12.3839C3.48599 12.397 3.44964 12.3839 3.46097 12.3876L3.76505 11.4349L4.06913 10.4823C3.44421 10.2828 2.81139 10.4069 2.31346 10.852L2.97984 11.5976ZM3.76505 11.4349L3.46097 12.3876L3.90545 12.5294L4.20952 11.5768L4.5136 10.6241L4.06913 10.4823L3.76505 11.4349ZM4.20952 11.5768L3.90545 12.5294L4.34992 12.6713L4.654 11.7187L4.95808 10.766L4.5136 10.6241L4.20952 11.5768ZM4.654 11.7187L4.34992 12.6713C4.60645 12.7532 4.84547 12.8472 5.06787 12.9525L5.49586 12.0487L5.92386 11.1449C5.6164 10.9993 5.29418 10.8733 4.95808 10.766L4.654 11.7187ZM5.49586 12.0487L5.06787 12.9525L5.46525 13.1407L5.89325 12.2369L6.32124 11.3331L5.92386 11.1449L5.49586 12.0487ZM5.89325 12.2369L5.46525 13.1407L5.86264 13.3289L6.29064 12.4251L6.71863 11.5213L6.32124 11.3331L5.89325 12.2369ZM6.29064 12.4251L5.86264 13.3289C6.38458 13.5761 7.00189 13.604 7.5555 13.2393L7.00534 12.4042L6.45518 11.5692C6.49425 11.5434 6.56056 11.5167 6.63881 11.5144C6.7097 11.5123 6.74066 11.5318 6.71863 11.5213L6.29064 12.4251ZM7.00534 12.4042L7.5555 13.2393L7.87282 13.0302L7.32266 12.1952L6.7725 11.3601L6.45518 11.5692L7.00534 12.4042ZM7.32266 12.1952L7.87282 13.0302L8.19014 12.8212L7.63998 11.9861L7.08982 11.1511L6.7725 11.3601L7.32266 12.1952ZM7.63998 11.9861L8.19014 12.8212C8.24523 12.7849 8.27643 12.772 8.28459 12.769C8.29166 12.7664 8.26884 12.7759 8.2223 12.776L8.21844 11.776L8.21458 10.7761C7.77667 10.7777 7.39363 10.9509 7.08982 11.1511L7.63998 11.9861ZM8.21844 11.776L8.2223 12.776L8.48344 12.775L8.47958 11.775L8.47572 10.775L8.21458 10.7761L8.21844 11.776ZM8.47958 11.775L8.48344 12.775L8.74458 12.774L8.74072 11.774L8.73686 10.774L8.47572 10.775L8.47958 11.775ZM8.74072 11.774L8.74458 12.774C8.81233 12.7738 8.93969 12.7861 9.1426 12.8343L9.37367 11.8613L9.60474 10.8884C9.31191 10.8188 9.0173 10.773 8.73686 10.774L8.74072 11.774ZM9.37367 11.8613L9.1426 12.8343L9.5144 12.9226L9.74547 11.9496L9.97655 10.9767L9.60474 10.8884L9.37367 11.8613ZM9.74547 11.9496L9.5144 12.9226L9.8862 13.0109L10.1173 12.0379L10.3484 11.065L9.97655 10.9767L9.74547 11.9496ZM10.1173 12.0379L9.8862 13.0109C10.1502 13.0736 10.4502 13.0842 10.7553 12.9881C11.0635 12.891 11.3074 12.7068 11.4895 12.4901L10.7239 11.8468L9.95822 11.2035C9.98381 11.1731 10.0484 11.1139 10.1543 11.0805C10.2572 11.0481 10.3322 11.0612 10.3484 11.065L10.1173 12.0379ZM10.7239 11.8468L11.4895 12.4901L11.7243 12.2107L10.9586 11.5674L10.193 10.9241L9.95822 11.2035L10.7239 11.8468ZM10.9586 11.5674L11.7243 12.2107L11.959 11.9312L11.1934 11.288L10.4278 10.6447L10.193 10.9241L10.9586 11.5674ZM11.1934 11.288L11.959 11.9312C12.1012 11.762 12.2494 11.5971 12.4038 11.4363L11.6826 10.7436L10.9615 10.0509C10.7766 10.2434 10.5986 10.4413 10.4278 10.6447L11.1934 11.288ZM11.6826 10.7436L12.4038 11.4363L12.6583 11.1714L11.9371 10.4787L11.2159 9.78595L10.9615 10.0509L11.6826 10.7436ZM11.9371 10.4787L12.6583 11.1714L12.9128 10.9065L12.1916 10.2138L11.4704 9.52103L11.2159 9.78595L11.9371 10.4787ZM12.1916 10.2138L12.9128 10.9065C13.1286 10.6818 13.3217 10.436 13.4927 10.1706L12.652 9.62916L11.8112 9.08767C11.7076 9.24856 11.5939 9.39248 11.4704 9.52103L12.1916 10.2138ZM12.652 9.62916L13.4927 10.1706L13.6986 9.85094L12.8579 9.30946L12.0172 8.76797L11.8112 9.08767L12.652 9.62916ZM12.8579 9.30946L13.6986 9.85094L13.9045 9.53124L13.0638 8.98976L12.2231 8.44828L12.0172 8.76797L12.8579 9.30946ZM13.0638 8.98976L13.9045 9.53124C13.9055 9.52967 13.8919 9.55025 13.8586 9.57204C13.825 9.59412 13.7971 9.6004 13.7911 9.60133L13.6384 8.61307L13.4856 7.62481C12.951 7.70745 12.5118 8.00001 12.2231 8.44828L13.0638 8.98976ZM13.6384 8.61307L13.7911 9.60133L14.1598 9.54434L14.007 8.55608L13.8543 7.56781L13.4856 7.62481L13.6384 8.61307ZM14.007 8.55608L14.1598 9.54434L14.5285 9.48734L14.3757 8.49908L14.223 7.51082L13.8543 7.56781L14.007 8.55608ZM14.3757 8.49908L14.5285 9.48734C14.6749 9.46471 14.7901 9.46914 14.8818 9.48673L15.0703 8.50467L15.2589 7.52262C14.916 7.45677 14.5681 7.45746 14.223 7.51082L14.3757 8.49908ZM15.0703 8.50467L14.8818 9.48673L15.2077 9.54932L15.3963 8.56726L15.5848 7.5852L15.2589 7.52262L15.0703 8.50467ZM15.3963 8.56726L15.2077 9.54932L15.5336 9.6119L15.7222 8.62984L15.9108 7.64779L15.5848 7.5852L15.3963 8.56726ZM15.7222 8.62984L15.5336 9.6119C15.8969 9.68165 16.27 9.66896 16.636 9.60611L16.4667 8.62054L16.2974 7.63497C16.1053 7.66797 15.9821 7.66148 15.9108 7.64779L15.7222 8.62984ZM16.4667 8.62054L16.636 9.60611L17.0545 9.53422L16.8853 8.54865L16.716 7.56308L16.2974 7.63497L16.4667 8.62054ZM16.8853 8.54865L17.0545 9.53422L17.4731 9.46233L17.3039 8.47676L17.1346 7.49119L16.716 7.56308L16.8853 8.54865ZM17.3039 8.47676L17.4731 9.46233C17.8332 9.40048 18.1798 9.29427 18.4951 9.1266L18.0255 8.24369L17.556 7.36077C17.4672 7.40801 17.3326 7.45718 17.1346 7.49119L17.3039 8.47676ZM18.0255 8.24369L18.4951 9.1266L18.7982 8.96542L18.3286 8.08251L17.8591 7.19959L17.556 7.36077L18.0255 8.24369ZM18.3286 8.08251L18.7982 8.96542L19.1012 8.80425L18.6317 7.92133L18.1622 7.03842L17.8591 7.19959L18.3286 8.08251ZM18.6317 7.92133L19.1012 8.80425C19.0829 8.81398 19.0473 8.82728 19.0015 8.8299C18.9572 8.83243 18.9321 8.82335 18.9344 8.82418L19.2764 7.88448L19.6184 6.94478C19.1421 6.77143 18.6307 6.78926 18.1622 7.03842L18.6317 7.92133ZM19.2764 7.88448L18.9344 8.82418L19.276 8.94851L19.618 8.00881L19.96 7.06911L19.6184 6.94478L19.2764 7.88448ZM19.618 8.00881L19.276 8.94851L19.6176 9.07284L19.9596 8.13314L20.3016 7.19344L19.96 7.06911L19.618 8.00881ZM19.9596 8.13314L19.6176 9.07284C19.7562 9.12328 19.8211 9.17038 19.8461 9.1928L20.5143 8.44883L21.1825 7.70486C20.9234 7.47214 20.6185 7.30878 20.3016 7.19344L19.9596 8.13314ZM20.5143 8.44883L19.8461 9.1928L20.0592 9.38416L20.7274 8.64019L21.3956 7.89622L21.1825 7.70486L20.5143 8.44883ZM20.7274 8.64019L20.0592 9.38416L20.2722 9.57552L20.9404 8.83155L21.6086 8.08757L21.3956 7.89622L20.7274 8.64019ZM20.9404 8.83155L20.2722 9.57552C20.5331 9.80985 20.8368 9.97151 21.1597 10.0751L21.465 9.12282L21.7704 8.17059C21.6779 8.14092 21.6318 8.10839 21.6086 8.08757L20.9404 8.83155ZM21.465 9.12282L21.1597 10.0751L21.4712 10.175L21.7766 9.22273L22.082 8.2705L21.7704 8.17059L21.465 9.12282ZM21.7766 9.22273L21.4712 10.175L21.7828 10.2749L22.0882 9.32265L22.3935 8.37041L22.082 8.2705L21.7766 9.22273ZM22.0882 9.32265L21.7828 10.2749C21.7687 10.2704 21.7533 10.2637 21.7378 10.2548C21.7223 10.2459 21.7098 10.2365 21.7006 10.2283C21.682 10.2117 21.6848 10.2073 21.6995 10.2348L22.582 9.76443L23.4644 9.29402C23.2446 8.88176 22.8938 8.53084 22.3935 8.37041L22.0882 9.32265ZM22.582 9.76443L21.6995 10.2348L21.8818 10.5767L22.7642 10.1063L23.6467 9.6359L23.4644 9.29402L22.582 9.76443ZM22.7642 10.1063L21.8818 10.5767L22.064 10.9186L22.9465 10.4482L23.8289 9.97777L23.6467 9.6359L22.7642 10.1063ZM22.9465 10.4482L22.064 10.9186C22.0663 10.9229 22.0555 10.9033 22.0528 10.8654C22.05 10.8269 22.0578 10.8007 22.0596 10.7958L22.9969 11.1444L23.9342 11.493C24.1246 10.9811 24.0813 10.4511 23.8289 9.97777L22.9465 10.4482ZM22.9969 11.1444L22.0596 10.7958L21.9278 11.1502L22.8651 11.4988L23.8024 11.8474L23.9342 11.493L22.9969 11.1444ZM22.8651 11.4988L21.9278 11.1502L21.796 11.5046L22.7333 11.8532L23.6705 12.2018L23.8024 11.8474L22.8651 11.4988ZM22.7333 11.8532L21.796 11.5046C21.7208 11.7068 21.6384 11.8946 21.5494 12.0688L22.4399 12.5238L23.3304 12.9787C23.4569 12.7313 23.57 12.472 23.6705 12.2018L22.7333 11.8532ZM22.4399 12.5238L21.5494 12.0688L21.3878 12.3851L22.2783 12.84L23.1689 13.295L23.3304 12.9787L22.4399 12.5238ZM22.2783 12.84L21.3878 12.3851L21.2263 12.7013L22.1168 13.1563L23.0073 13.6112L23.1689 13.295L22.2783 12.84ZM22.1168 13.1563L21.2263 12.7013C21.221 12.7117 21.231 12.6882 21.2684 12.6559C21.3087 12.6211 21.3579 12.596 21.4045 12.5837L21.66 13.5505L21.9155 14.5173C22.4328 14.3806 22.7935 14.0297 23.0073 13.6112L22.1168 13.1563ZM21.66 13.5505L21.4045 12.5837L21.1094 12.6617L21.3648 13.6285L21.6203 14.5953L21.9155 14.5173L21.66 13.5505ZM21.3648 13.6285L21.1094 12.6617L20.8142 12.7397L21.0696 13.7065L21.3251 14.6733L21.6203 14.5953L21.3648 13.6285ZM21.0696 13.7065L20.8142 12.7397C20.5635 12.8059 20.3136 12.8944 20.0646 13.0024L20.4627 13.9198L20.8608 14.8371C21.0275 14.7648 21.1821 14.7111 21.3251 14.6733L21.0696 13.7065ZM20.4627 13.9198L20.0646 13.0024L19.7529 13.1377L20.151 14.0551L20.5491 14.9724L20.8608 14.8371L20.4627 13.9198ZM20.151 14.0551L19.7529 13.1377L19.4412 13.273L19.8392 14.1903L20.2373 15.1077L20.5491 14.9724L20.151 14.0551ZM19.8392 14.1903L19.4412 13.273C19.1145 13.4148 18.8238 13.6151 18.5706 13.864L19.2716 14.5772L19.9726 15.2904C20.0606 15.2038 20.1484 15.1463 20.2373 15.1077L19.8392 14.1903ZM19.2716 14.5772L18.5706 13.864L18.3146 14.1156L19.0156 14.8288L19.7166 15.5419L19.9726 15.2904L19.2716 14.5772ZM19.0156 14.8288L18.3146 14.1156L18.0587 14.3671L18.7597 15.0803L19.4607 15.7935L19.7166 15.5419L19.0156 14.8288ZM18.7597 15.0803L18.0587 14.3671C17.9873 14.4373 17.9078 14.4884 17.8122 14.5247L18.1668 15.4597L18.5215 16.3947C18.8751 16.2605 19.1908 16.0588 19.4607 15.7935L18.7597 15.0803ZM18.1668 15.4597L17.8122 14.5247L17.4753 14.6525L17.8299 15.5875L18.1846 16.5225L18.5215 16.3947L18.1668 15.4597ZM17.8299 15.5875L17.4753 14.6525L17.1383 14.7803L17.493 15.7153L17.8476 16.6503L18.1846 16.5225L17.8299 15.5875ZM17.493 15.7153L17.1383 14.7803C17.0929 14.7975 17.0648 14.8025 17.0522 14.804C17.0406 14.8054 17.0405 14.8039 17.0477 14.8053L16.8633 15.7881L16.6788 16.771C17.0892 16.848 17.4873 16.787 17.8476 16.6503L17.493 15.7153ZM16.8633 15.7881L17.0477 14.8053L16.7549 14.7503L16.5704 15.7332L16.386 16.716L16.6788 16.771L16.8633 15.7881ZM16.5704 15.7332L16.7549 14.7503L16.4621 14.6954L16.2776 15.6782L16.0932 16.6611L16.386 16.716L16.5704 15.7332ZM16.2776 15.6782L16.4621 14.6954C15.9146 14.5926 15.4347 14.7858 15.075 15.0561L15.6757 15.8556L16.2765 16.655C16.3054 16.6333 16.301 16.6432 16.2634 16.6543C16.2203 16.667 16.1592 16.6735 16.0932 16.6611L16.2776 15.6782ZM15.6757 15.8556L15.075 15.0561L14.7659 15.2884L15.3667 16.0878L15.9674 16.8872L16.2765 16.655L15.6757 15.8556ZM15.3667 16.0878L14.7659 15.2884L14.4568 15.5207L15.0576 16.3201L15.6584 17.1195L15.9674 16.8872L15.3667 16.0878ZM15.0576 16.3201L14.4568 15.5207C14.1664 15.739 13.9149 15.999 13.7027 16.296L14.5163 16.8774L15.33 17.4587C15.4273 17.3224 15.5367 17.211 15.6584 17.1195L15.0576 16.3201ZM14.5163 16.8774L13.7027 16.296L13.4705 16.621L14.2842 17.2023L15.0978 17.7836L15.33 17.4587L14.5163 16.8774ZM14.2842 17.2023L13.4705 16.621L13.2383 16.9459L14.052 17.5272L14.8657 18.1086L15.0978 17.7836L14.2842 17.2023ZM14.052 17.5272L13.2383 16.9459C13.237 16.9478 13.254 16.9246 13.2943 16.9022C13.335 16.8796 13.3671 16.8759 13.3719 16.8756L13.4275 17.8741L13.4832 18.8725C14.0533 18.8407 14.5379 18.5673 14.8657 18.1086L14.052 17.5272ZM13.4275 17.8741L13.3719 16.8756L12.9796 16.8975L13.0352 17.8959L13.0909 18.8944L13.4832 18.8725L13.4275 17.8741ZM13.0352 17.8959L12.9796 16.8975L12.5873 16.9193L12.6429 17.9178L12.6986 18.9162L13.0909 18.8944L13.0352 17.8959ZM12.6429 17.9178L12.5873 16.9193C12.0794 16.9477 11.6091 17.1543 11.2573 17.5563L12.0098 18.2149L12.7623 18.8734C12.76 18.876 12.7543 18.882 12.7448 18.8892C12.7352 18.8965 12.7244 18.9031 12.7132 18.9083C12.6894 18.9195 12.6799 18.9173 12.6986 18.9162L12.6429 17.9178ZM12.0098 18.2149L11.2573 17.5563L11.0164 17.8315L11.7689 18.4901L12.5215 19.1486L12.7623 18.8734L12.0098 18.2149ZM11.7689 18.4901L11.0164 17.8315L10.7756 18.1067L11.5281 18.7653L12.2806 19.4238L12.5215 19.1486L11.7689 18.4901ZM11.5281 18.7653L10.7756 18.1067C10.7873 18.0933 10.8019 18.08 10.8184 18.0683C10.8348 18.0568 10.8492 18.0497 10.8589 18.0458C10.8777 18.0382 10.8678 18.0469 10.8109 18.0478L10.8264 19.0476L10.842 20.0475C11.3532 20.0396 11.8875 19.8731 12.2806 19.4238L11.5281 18.7653ZM10.8264 19.0476L10.8109 18.0478L10.35 18.0549L10.3656 19.0548L10.3812 20.0547L10.842 20.0475L10.8264 19.0476ZM10.3656 19.0548L10.35 18.0549L9.88919 18.0621L9.90476 19.062L9.92032 20.0619L10.3812 20.0547L10.3656 19.0548ZM9.90476 19.062L9.88919 18.0621C9.3213 18.0709 8.71958 18.3049 8.387 18.923L9.26762 19.3968L10.1482 19.8707C10.1344 19.8964 10.1126 19.9282 10.0808 19.96C10.0488 19.992 10.0138 20.0168 9.98026 20.0345C9.91422 20.0692 9.88082 20.0625 9.92032 20.0619L9.90476 19.062ZM9.26762 19.3968L8.387 18.923L8.2107 19.2507L9.09132 19.7245L9.97194 20.1983L10.1482 19.8707L9.26762 19.3968ZM9.09132 19.7245L8.2107 19.2507L8.0344 19.5783L8.91502 20.0521L9.79563 20.526L9.97194 20.1983L9.09132 19.7245ZM8.91502 20.0521L8.0344 19.5783C8.06901 19.514 8.14977 19.417 8.284 19.3601C8.40353 19.3093 8.48244 19.3258 8.46544 19.3231L8.30676 20.3104L8.14808 21.2977C8.41905 21.3413 8.74332 21.3378 9.0656 21.201C9.40258 21.0579 9.64349 20.8087 9.79563 20.526L8.91502 20.0521ZM8.30676 20.3104L8.46544 19.3231L8.03349 19.2536L7.87481 20.241L7.71613 21.2283L8.14808 21.2977L8.30676 20.3104ZM7.87481 20.241L8.03349 19.2536L7.60154 19.1842L7.44286 20.1715L7.28418 21.1589L7.71613 21.2283L7.87481 20.241ZM7.44286 20.1715L7.60154 19.1842C7.33538 19.1414 7.02752 19.144 6.71903 19.2589C6.39842 19.3784 6.14867 19.5929 5.97461 19.8554L6.80803 20.4081L7.64145 20.9607C7.60264 21.0192 7.52632 21.0924 7.41732 21.133C7.32044 21.1691 7.26237 21.1554 7.28418 21.1589L7.44286 20.1715ZM6.80803 20.4081L5.97461 19.8554L5.77174 20.1614L6.60516 20.714L7.43858 21.2667L7.64145 20.9607L6.80803 20.4081ZM6.60516 20.714L5.77174 20.1614L5.56886 20.4673L6.40228 21.02L7.2357 21.5726L7.43858 21.2667L6.60516 20.714ZM6.40228 21.02L5.56886 20.4673C5.57014 20.4654 5.59199 20.4343 5.64259 20.4033C5.69503 20.3713 5.74514 20.3598 5.77444 20.3574L5.85599 21.354L5.93754 22.3507C6.49424 22.3051 6.94389 22.0127 7.2357 21.5726L6.40228 21.02ZM5.85599 21.354L5.77444 20.3574L5.43102 20.3855L5.51257 21.3821L5.59412 22.3788L5.93754 22.3507L5.85599 21.354ZM5.51257 21.3821L5.43102 20.3855L5.08759 20.4136L5.16915 21.4102L5.2507 22.4069L5.59412 22.3788L5.51257 21.3821ZM5.16915 21.4102L5.08759 20.4136C4.68663 20.4464 4.31207 20.5786 3.97918 20.8031L4.53829 21.6322L5.09741 22.4612C5.14776 22.4273 5.19377 22.4116 5.2507 22.4069L5.16915 21.4102ZM4.53829 21.6322L3.97918 20.8031L3.69175 20.9969L4.25086 21.826L4.80998 22.6551L5.09741 22.4612L4.53829 21.6322ZM4.25086 21.826L3.69175 20.9969L3.40432 21.1907L3.96343 22.0198L4.52255 22.8489L4.80998 22.6551L4.25086 21.826ZM3.96343 22.0198L3.40432 21.1907C3.21719 21.3169 3.0598 21.4206 2.93102 21.5027L3.46861 22.3459L4.00619 23.1891C4.15394 23.0949 4.32644 22.9812 4.52255 22.8489L3.96343 22.0198ZM3.46861 22.3459L2.93102 21.5027L2.72363 21.6349L3.26121 22.4781L3.79879 23.3213L4.00619 23.1891L3.46861 22.3459ZM3.26121 22.4781L2.72363 21.6349L2.51623 21.7671L3.05382 22.6103L3.5914 23.4535L3.79879 23.3213L3.26121 22.4781ZM3.05382 22.6103L2.51623 21.7671C2.24419 21.9406 2.02484 22.1721 1.84624 22.4181L2.65544 23.0056L3.46465 23.5931C3.54068 23.4884 3.58692 23.4564 3.5914 23.4535L3.05382 22.6103ZM2.65544 23.0056L1.84624 22.4181L1.65526 22.6811L2.46447 23.2686L3.27368 23.8562L3.46465 23.5931L2.65544 23.0056ZM2.46447 23.2686L1.65526 22.6811L1.46428 22.9442L2.27349 23.5317L3.0827 24.1192L3.27368 23.8562L2.46447 23.2686ZM2.27349 23.5317L1.46428 22.9442C1.21713 23.2846 1.08843 23.6734 1.06102 24.0791L2.05874 24.1465L3.05647 24.2139C3.06075 24.1505 3.07521 24.1295 3.0827 24.1192L2.27349 23.5317ZM2.05874 24.1465L1.06102 24.0791L1.03725 24.4309L2.03497 24.4983L3.0327 24.5657L3.05647 24.2139L2.05874 24.1465ZM2.03497 24.4983L1.03725 24.4309L1.01348 24.7826L2.0112 24.85L3.00893 24.9175L3.0327 24.5657L2.03497 24.4983ZM2.0112 24.85L1.01348 24.7826C0.994436 25.0645 0.995533 25.3454 1.01707 25.6251L2.01412 25.5484L3.01117 25.4716C2.99713 25.2892 2.99628 25.1047 3.00893 24.9175L2.0112 24.85ZM2.01412 25.5484L1.01707 25.6251L1.04375 25.9717L2.0408 25.8949L3.03785 25.8182L3.01117 25.4716L2.01412 25.5484ZM2.0408 25.8949L1.04375 25.9717L1.07043 26.3183L2.06748 26.2415L3.06453 26.1647L3.03785 25.8182L2.0408 25.8949ZM2.06748 26.2415L1.07043 26.3183C1.09656 26.6577 1.17691 26.987 1.3061 27.3033L2.23184 26.9251L3.15759 26.547C3.1032 26.4138 3.07397 26.2874 3.06453 26.1647L2.06748 26.2415ZM2.23184 26.9251L1.3061 27.3033L1.44378 27.6403L2.36953 27.2622L3.29527 26.884L3.15759 26.547L2.23184 26.9251ZM2.36953 27.2622L1.44378 27.6403L1.58147 27.9774L2.50721 27.5992L3.43295 27.2211L3.29527 26.884L2.36953 27.2622ZM2.50721 27.5992L1.58147 27.9774C1.67656 28.2102 1.7626 28.409 1.83812 28.5658L2.73912 28.132L3.64012 27.6982C3.59001 27.5941 3.52144 27.4377 3.43295 27.2211L2.50721 27.5992ZM2.73912 28.132L1.83812 28.5658L1.93234 28.7615L2.83334 28.3277L3.73434 27.8939L3.64012 27.6982L2.73912 28.132ZM2.83334 28.3277L1.93234 28.7615L2.02656 28.9572L2.92756 28.5234L3.82856 28.0896L3.73434 27.8939L2.83334 28.3277ZM2.92756 28.5234L2.02656 28.9572C2.24547 29.4118 2.657 29.6506 2.96426 29.7811L3.3552 28.8607L3.74615 27.9403C3.69165 27.9171 3.68378 27.9069 3.70089 27.9204C3.71947 27.9351 3.77943 27.9875 3.82856 28.0896L2.92756 28.5234ZM3.3552 28.8607L2.96426 29.7811L3.29767 29.9227L3.68862 29.0023L4.07957 28.0819L3.74615 27.9403L3.3552 28.8607ZM3.68862 29.0023L3.29767 29.9227L3.63109 30.0643L4.02204 29.1439L4.41299 28.2235L4.07957 28.0819L3.68862 29.0023ZM4.02204 29.1439L3.63109 30.0643C4.14532 30.2828 4.68501 30.2439 5.16123 29.9872L4.68669 29.107L4.21215 28.2267C4.21212 28.2268 4.21415 28.2257 4.21824 28.224C4.22235 28.2222 4.22838 28.22 4.23627 28.2176C4.25258 28.2128 4.27409 28.2084 4.29941 28.207C4.35464 28.204 4.39592 28.2163 4.41299 28.2235L4.02204 29.1439ZM4.68669 29.107L5.16123 29.9872L5.49246 29.8086L5.01791 28.9284L4.54337 28.0482L4.21215 28.2267L4.68669 29.107ZM5.01791 28.9284L5.49246 29.8086L5.82368 29.6301L5.34914 28.7498L4.8746 27.8696L4.54337 28.0482L5.01791 28.9284ZM5.34914 28.7498L5.82368 29.6301C5.99784 29.5362 6.15171 29.4715 6.28607 29.4293L5.98676 28.4752L5.68744 27.521C5.41328 27.607 5.14208 27.7254 4.8746 27.8696L5.34914 28.7498ZM5.98676 28.4752L6.28607 29.4293L6.59246 29.3332L6.29314 28.379L5.99383 27.4249L5.68744 27.521L5.98676 28.4752ZM6.29314 28.379L6.59246 29.3332L6.89885 29.2371L6.59953 28.2829L6.30022 27.3288L5.99383 27.4249L6.29314 28.379ZM6.59953 28.2829L6.89885 29.2371C6.88685 29.2409 6.87208 29.2441 6.85541 29.2458C6.83874 29.2475 6.82334 29.2473 6.81032 29.246C6.78354 29.2432 6.77834 29.2371 6.79845 29.2469L7.23666 28.3481L7.67488 27.4492C7.26071 27.2473 6.78413 27.177 6.30022 27.3288L6.59953 28.2829ZM7.23666 28.3481L6.79845 29.2469L7.12919 29.4082L7.5674 28.5093L8.00562 27.6104L7.67488 27.4492L7.23666 28.3481ZM7.5674 28.5093L7.12919 29.4082L7.45993 29.5694L7.89814 28.6705L8.33636 27.7717L8.00562 27.6104L7.5674 28.5093ZM7.89814 28.6705L7.45993 29.5694C7.87436 29.7715 8.32335 29.8311 8.77459 29.7486L8.59482 28.7649L8.41505 27.7812C8.37838 27.7879 8.36292 27.7846 8.33636 27.7717L7.89814 28.6705ZM8.59482 28.7649L8.77459 29.7486L9.14053 29.6818L8.96076 28.698L8.78099 27.7143L8.41505 27.7812L8.59482 28.7649ZM8.96076 28.698L9.14053 29.6818L9.50646 29.6149L9.3267 28.6312L9.14693 27.6475L8.78099 27.7143L8.96076 28.698ZM9.3267 28.6312L9.50646 29.6149C9.67376 29.5843 9.84173 29.5735 10.012 29.5825L10.0645 28.5839L10.117 27.5852C9.79145 27.5681 9.46755 27.5889 9.14693 27.6475L9.3267 28.6312ZM10.0645 28.5839L10.012 29.5825L10.3838 29.602L10.4364 28.6034L10.4889 27.6048L10.117 27.5852L10.0645 28.5839ZM10.4364 28.6034L10.3838 29.602L10.7557 29.6216L10.8082 28.623L10.8608 27.6244L10.4889 27.6048L10.4364 28.6034ZM10.8082 28.623L10.7557 29.6216C11.2235 29.6462 11.6604 29.5199 12.049 29.2955L11.5489 28.4295L11.0487 27.5636C10.9457 27.6231 10.8888 27.6258 10.8608 27.6244L10.8082 28.623ZM11.5489 28.4295L12.049 29.2955L12.4178 29.0825L11.9177 28.2165L11.4175 27.3506L11.0487 27.5636L11.5489 28.4295ZM11.9177 28.2165L12.4178 29.0825L12.7866 28.8695L12.2865 28.0035L11.7863 27.1376L11.4175 27.3506L11.9177 28.2165ZM12.2865 28.0035L12.7866 28.8695C12.7962 28.8639 12.7439 28.8963 12.6431 28.8966C12.5333 28.8969 12.4472 28.8589 12.4022 28.8282L12.9654 28.0018L13.5285 27.1755C13.2768 27.0039 12.9741 26.8958 12.6381 26.8966C12.311 26.8974 12.0226 27.0011 11.7863 27.1376L12.2865 28.0035ZM12.9654 28.0018L12.4022 28.8282L12.7124 29.0395L13.2755 28.2132L13.8386 27.3868L13.5285 27.1755L12.9654 28.0018ZM13.2755 28.2132L12.7124 29.0395L13.0225 29.2509L13.5856 28.4245L14.1488 27.5982L13.8386 27.3868L13.2755 28.2132ZM13.5856 28.4245L13.0225 29.2509C13.3368 29.4651 13.6844 29.6136 14.0601 29.6847L14.2459 28.7021L14.4318 27.7195C14.3406 27.7023 14.2479 27.6658 14.1488 27.5982L13.5856 28.4245ZM14.2459 28.7021L14.0601 29.6847L14.4103 29.7509L14.5962 28.7683L14.782 27.7857L14.4318 27.7195L14.2459 28.7021ZM14.5962 28.7683L14.4103 29.7509L14.7606 29.8171L14.9464 28.8346L15.1322 27.852L14.782 27.7857L14.5962 28.7683ZM14.9464 28.8346L14.7606 29.8171C15.1232 29.8857 15.4893 29.8821 15.8518 29.8155L15.6711 28.832L15.4905 27.8484C15.3536 27.8736 15.2366 27.8717 15.1322 27.852L14.9464 28.8346ZM15.6711 28.832L15.8518 29.8155L16.2263 29.7468L16.0457 28.7632L15.8651 27.7797L15.4905 27.8484L15.6711 28.832ZM16.0457 28.7632L16.2263 29.7468L16.6009 29.678L16.4202 28.6944L16.2396 27.7109L15.8651 27.7797L16.0457 28.7632ZM16.4202 28.6944L16.6009 29.678C16.9757 29.6091 17.3279 29.4718 17.6483 29.2644L17.1051 28.4248L16.5619 27.5853C16.4686 27.6456 16.3641 27.688 16.2396 27.7109L16.4202 28.6944ZM17.1051 28.4248L17.6483 29.2644L17.9587 29.0636L17.4155 28.224L16.8722 27.3845L16.5619 27.5853L17.1051 28.4248ZM17.4155 28.224L17.9587 29.0636L18.269 28.8628L17.7258 28.0232L17.1826 27.1837L16.8722 27.3845L17.4155 28.224ZM17.7258 28.0232L18.269 28.8628C18.268 28.8635 18.2651 28.8652 18.2608 28.8669C18.2565 28.8686 18.2533 28.8694 18.2523 28.8696C18.2496 28.8701 18.2657 28.8663 18.3086 28.8725L18.4522 27.8828L18.5959 26.8932C18.1141 26.8233 17.6207 26.9002 17.1826 27.1837L17.7258 28.0232ZM18.4522 27.8828L18.3086 28.8725L18.7247 28.9329L18.8684 27.9432L19.012 26.9536L18.5959 26.8932L18.4522 27.8828ZM18.8684 27.9432L18.7247 28.9329L19.1408 28.9933L19.2845 28.0037L19.4281 27.014L19.012 26.9536L18.8684 27.9432ZM19.2845 28.0037L19.1408 28.9933C19.3657 29.0259 19.5643 29.0731 19.7392 29.1319L20.0575 28.1839L20.3757 27.2359C20.0748 27.1348 19.7581 27.0619 19.4281 27.014L19.2845 28.0037ZM20.0575 28.1839L19.7392 29.1319L20.096 29.2517L20.4143 28.3037L20.7326 27.3557L20.3757 27.2359L20.0575 28.1839ZM20.4143 28.3037L20.096 29.2517L20.4529 29.3715L20.7712 28.4235L21.0895 27.4755L20.7326 27.3557L20.4143 28.3037ZM20.7712 28.4235L20.4529 29.3715C20.6527 29.4386 20.8294 29.5114 20.985 29.5886L21.4293 28.6927L21.8735 27.7968C21.6275 27.6748 21.3655 27.5682 21.0895 27.4755L20.7712 28.4235ZM21.4293 28.6927L20.985 29.5886L21.2863 29.738L21.7305 28.8421L22.1748 27.9462L21.8735 27.7968L21.4293 28.6927ZM21.7305 28.8421L21.2863 29.738L21.5875 29.8873L22.0318 28.9914L22.476 28.0955L22.1748 27.9462L21.7305 28.8421ZM22.0318 28.9914L21.5875 29.8873C21.9186 30.0515 22.3019 30.0863 22.673 29.9521C23.0055 29.8319 23.2442 29.6066 23.4073 29.4076L22.6339 28.7737L21.8604 28.1399C21.8229 28.1856 21.861 28.119 21.9929 28.0713C22.0649 28.0452 22.1532 28.0296 22.2495 28.0361C22.3447 28.0425 22.4219 28.0687 22.476 28.0955L22.0318 28.9914ZM22.6339 28.7737L23.4073 29.4076L23.7081 29.0405L22.9347 28.4066L22.1613 27.7728L21.8604 28.1399L22.6339 28.7737ZM22.9347 28.4066L23.7081 29.0405L24.009 28.6734L23.2355 28.0395L22.4621 27.4057L22.1613 27.7728L22.9347 28.4066ZM23.2355 28.0395L24.009 28.6734C24.0076 28.6751 23.9803 28.7085 23.9204 28.746C23.856 28.7863 23.7617 28.8258 23.6447 28.8365C23.5279 28.8472 23.4298 28.8254 23.3622 28.799C23.33 28.7865 23.3065 28.7736 23.2919 28.7646C23.2772 28.7557 23.2697 28.7495 23.2691 28.749L23.9063 27.9782L24.5434 27.2075C24.3038 27.0094 23.9318 26.8019 23.4626 26.8448C22.9906 26.888 22.6616 27.1622 22.4621 27.4057L23.2355 28.0395ZM23.9063 27.9782L23.2691 28.749L23.639 29.0548L24.2762 28.284L24.9133 27.5133L24.5434 27.2075L23.9063 27.9782ZM24.2762 28.284L23.639 29.0548L24.0089 29.3606L24.646 28.5898L25.2832 27.8191L24.9133 27.5133L24.2762 28.284ZM24.646 28.5898L24.0089 29.3606C24.4084 29.6909 24.9987 29.9576 25.6653 29.7312L25.3438 28.7843L25.0222 27.8374C25.0623 27.8238 25.1081 27.8151 25.1564 27.8141C25.2043 27.8131 25.2445 27.8199 25.2739 27.8281C25.329 27.8434 25.3319 27.8593 25.2832 27.8191L24.646 28.5898ZM25.3438 28.7843L25.6653 29.7312L25.9931 29.6199L25.6716 28.673L25.3501 27.7261L25.0222 27.8374L25.3438 28.7843ZM25.6716 28.673L25.9931 29.6199L26.321 29.5086L25.9995 28.5617L25.6779 27.6148L25.3501 27.7261L25.6716 28.673ZM25.9995 28.5617L26.321 29.5086C26.3505 29.4985 26.3642 29.4989 26.389 29.5058L26.658 28.5427L26.927 27.5796C26.5108 27.4633 26.0855 27.4764 25.6779 27.6148L25.9995 28.5617ZM26.658 28.5427L26.389 29.5058L26.7197 29.5982L26.9887 28.6351L27.2577 27.672L26.927 27.5796L26.658 28.5427ZM26.9887 28.6351L26.7197 29.5982L27.0504 29.6906L27.3194 28.7275L27.5884 27.7643L27.2577 27.672L26.9887 28.6351ZM27.3194 28.7275L27.0504 29.6906C27.4139 29.7921 27.8147 29.8161 28.2152 29.6908L27.9164 28.7364L27.6177 27.7821C27.6268 27.7793 27.6348 27.7776 27.6409 27.7768C27.647 27.7759 27.6499 27.776 27.6491 27.776C27.6471 27.776 27.628 27.7754 27.5884 27.7643L27.3194 28.7275ZM27.9164 28.7364L28.2152 29.6908L28.4815 29.6074L28.1828 28.6531L27.884 27.6987L27.6177 27.7821L27.9164 28.7364ZM28.1828 28.6531L28.4815 29.6074L28.7479 29.524L28.4491 28.5697L28.1504 27.6154L27.884 27.6987L28.1828 28.6531ZM28.4491 28.5697L28.7479 29.524C28.6855 29.5436 28.6436 29.5402 28.6385 29.5397C28.6365 29.5395 28.6428 29.54 28.6585 29.5441C28.6742 29.5483 28.6974 29.5556 28.7285 29.568L29.0988 28.6391L29.469 27.7101C29.0986 27.5625 28.6307 27.465 28.1504 27.6154L28.4491 28.5697ZM29.0988 28.6391L28.7285 29.568L29.1118 29.7208L29.4821 28.7918L29.8523 27.8629L29.469 27.7101L29.0988 28.6391ZM29.4821 28.7918L29.1118 29.7208L29.4951 29.8735L29.8654 28.9446L30.2356 28.0157L29.8523 27.8629L29.4821 28.7918ZM29.8654 28.9446L29.4951 29.8735C30.025 30.0847 30.5695 30.0481 31.0644 29.8344L30.6679 28.9163L30.2715 27.9983C30.2506 28.0073 30.2366 28.0114 30.2291 28.0131C30.2219 28.0148 30.22 28.0146 30.2224 28.0145C30.2251 28.0144 30.2291 28.0146 30.2333 28.0154C30.2374 28.0161 30.2384 28.0168 30.2356 28.0157L29.8654 28.9446ZM30.6679 28.9163L31.0644 29.8344L31.4836 29.6533L31.0872 28.7353L30.6907 27.8172L30.2715 27.9983L30.6679 28.9163ZM31.0872 28.7353L31.4836 29.6533L31.9029 29.4723L31.5064 28.5542L31.11 27.6362L30.6907 27.8172L31.0872 28.7353ZM31.5064 28.5542L31.9029 29.4723C31.9616 29.4469 31.9578 29.4593 31.9055 29.4603C31.8771 29.4608 31.8364 29.4579 31.7882 29.445C31.7392 29.4318 31.6914 29.4108 31.6482 29.3831L32.1878 28.5412L32.7274 27.6993C32.1574 27.334 31.5429 27.4492 31.11 27.6362L31.5064 28.5542ZM32.1878 28.5412L31.6482 29.3831L31.9104 29.5512L32.45 28.7092L32.9896 27.8673L32.7274 27.6993L32.1878 28.5412ZM32.45 28.7092L31.9104 29.5512L32.1726 29.7192L32.7122 28.8772L33.2517 28.0353L32.9896 27.8673L32.45 28.7092ZM32.7122 28.8772L32.1726 29.7192C32.2733 29.7837 32.4423 29.877 32.6617 29.9138C32.9103 29.9554 33.2348 29.9223 33.5204 29.7018C33.7757 29.5046 33.8783 29.2496 33.9213 29.0976C33.9661 28.9391 33.9757 28.7898 33.9763 28.6786L32.9763 28.6733L31.9763 28.668C31.9762 28.6808 31.9743 28.6329 31.9968 28.5534C32.0174 28.4804 32.0868 28.2819 32.2981 28.1188C32.5397 27.9322 32.8093 27.9106 32.9922 27.9413C33.146 27.967 33.2384 28.0268 33.2517 28.0353L32.7122 28.8772ZM32.9763 28.6733L33.9763 28.6786L33.9782 28.3066L32.9782 28.3013L31.9782 28.2961L31.9763 28.668L32.9763 28.6733ZM32.9782 28.3013L33.9782 28.3066L33.9802 27.9346L32.9802 27.9294L31.9802 27.9241L31.9782 28.2961L32.9782 28.3013ZM32.9802 27.9294L33.9802 27.9346C33.9814 27.7031 33.9883 27.4661 34.0011 27.2237L33.0025 27.171L32.0039 27.1182C31.9895 27.3911 31.9816 27.6597 31.9802 27.9241L32.9802 27.9294ZM33.0025 27.171L34.0011 27.2237L34.0215 26.8372L33.0229 26.7845L32.0243 26.7318L32.0039 27.1182L33.0025 27.171ZM33.0229 26.7845L34.0215 26.8372L34.042 26.4507L33.0433 26.398L32.0447 26.3453L32.0243 26.7318L33.0229 26.7845ZM33.0433 26.398L34.042 26.4507C34.0494 26.3086 34.0815 26.1569 34.1465 25.9921L33.2164 25.6249L32.2862 25.2578C32.1478 25.6085 32.0644 25.9721 32.0447 26.3453L33.0433 26.398ZM33.2164 25.6249L34.1465 25.9921L34.2991 25.6054L33.369 25.2383L32.4388 24.8711L32.2862 25.2578L33.2164 25.6249ZM33.369 25.2383L34.2991 25.6054L34.4518 25.2188L33.5216 24.8516L32.5914 24.4845L32.4388 24.8711L33.369 25.2383ZM33.5216 24.8516L34.4518 25.2188C34.6547 24.7046 34.6452 24.1326 34.3256 23.6192L33.4767 24.1478L32.6278 24.6763C32.6117 24.6504 32.5924 24.6034 32.5887 24.546C32.5853 24.4925 32.5979 24.4682 32.5914 24.4845L33.5216 24.8516ZM33.4767 24.1478L34.3256 23.6192L34.1281 23.302L33.2792 23.8305L32.4303 24.3591L32.6278 24.6763L33.4767 24.1478ZM33.2792 23.8305L34.1281 23.302L33.9306 22.9848L33.0817 23.5133L32.2328 24.0419L32.4303 24.3591L33.2792 23.8305ZM33.0817 23.5133L33.9306 22.9848C33.8331 22.8282 33.7604 22.6777 33.7084 22.5331L32.7675 22.8717L31.8265 23.2102C31.9301 23.4982 32.0669 23.7754 32.2328 24.0419L33.0817 23.5133ZM32.7675 22.8717L33.7084 22.5331L33.5917 22.2086L32.6507 22.5472L31.7098 22.8858L31.8265 23.2102L32.7675 22.8717ZM32.6507 22.5472L33.5917 22.2086L33.4749 21.8842L32.534 22.2228L31.593 22.5613L31.7098 22.8858L32.6507 22.5472ZM32.534 22.2228L33.4749 21.8842C33.3822 21.6266 33.2103 21.3461 32.9087 21.149C32.6057 20.951 32.2775 20.9062 32.0002 20.9279L32.0781 21.9248L32.156 22.9218C32.1047 22.9258 31.9656 22.9218 31.8146 22.8232C31.665 22.7254 31.6079 22.6027 31.593 22.5613L32.534 22.2228ZM32.0781 21.9248L32.0002 20.9279L31.661 20.9544L31.739 21.9514L31.8169 22.9483L32.156 22.9218L32.0781 21.9248ZM31.739 21.9514L31.661 20.9544L31.3219 20.9809L31.3998 21.9779L31.4778 22.9748L31.8169 22.9483L31.739 21.9514ZM31.3998 21.9779L31.3219 20.9809C31.2472 20.9867 31.1291 20.9788 30.9559 20.9253L30.6605 21.8806L30.365 22.836C30.7255 22.9474 31.1003 23.0043 31.4778 22.9748L31.3998 21.9779ZM30.6605 21.8806L30.9559 20.9253L30.5557 20.8015L30.2602 21.7568L29.9648 22.7122L30.365 22.836L30.6605 21.8806ZM30.2602 21.7568L30.5557 20.8015L30.1555 20.6777L29.86 21.6331L29.5646 22.5884L29.9648 22.7122L30.2602 21.7568ZM29.86 21.6331L30.1555 20.6777C29.7642 20.5567 29.3578 20.5138 28.9478 20.5718L29.088 21.5619L29.2283 22.5521C29.314 22.5399 29.4222 22.5444 29.5646 22.5884L29.86 21.6331ZM29.088 21.5619L28.9478 20.5718L28.576 20.6245L28.7163 21.6146L28.8565 22.6047L29.2283 22.5521L29.088 21.5619ZM28.7163 21.6146L28.576 20.6245L28.2043 20.6771L28.3445 21.6673L28.4848 22.6574L28.8565 22.6047L28.7163 21.6146ZM28.3445 21.6673L28.2043 20.6771C27.9132 20.7184 27.6319 20.7777 27.3617 20.8567L27.6424 21.8165L27.9231 22.7763C28.0934 22.7265 28.2802 22.6864 28.4848 22.6574L28.3445 21.6673ZM27.6424 21.8165L27.3617 20.8567L27.0314 20.9533L27.312 21.9131L27.5927 22.8729L27.9231 22.7763L27.6424 21.8165ZM27.312 21.9131L27.0314 20.9533L26.701 21.0499L26.9817 22.0097L27.2623 22.9695L27.5927 22.8729L27.312 21.9131ZM26.9817 22.0097L26.701 21.0499C26.688 21.0537 26.659 21.0616 26.5867 21.0392L26.2902 21.9942L25.9936 22.9492C26.4028 23.0763 26.8349 23.0945 27.2623 22.9695L26.9817 22.0097ZM26.2902 21.9942L26.5867 21.0392L26.2256 20.927L25.929 21.882L25.6325 22.8371L25.9936 22.9492L26.2902 21.9942ZM25.929 21.882L26.2256 20.927L25.8644 20.8149L25.5679 21.7699L25.2713 22.7249L25.6325 22.8371L25.929 21.882ZM25.5679 21.7699L25.8644 20.8149C25.4906 20.6988 25.1013 20.6626 24.7081 20.6885L24.7738 21.6863L24.8396 22.6841C25.0236 22.672 25.1636 22.6915 25.2713 22.7249L25.5679 21.7699ZM24.7738 21.6863L24.7081 20.6885L24.2752 20.717L24.3409 21.7148L24.4067 22.7127L24.8396 22.6841L24.7738 21.6863ZM24.3409 21.7148L24.2752 20.717L23.8423 20.7455L23.908 21.7434L23.9738 22.7412L24.4067 22.7127L24.3409 21.7148ZM23.908 21.7434L23.8423 20.7455C23.3991 20.7747 22.9572 20.9075 22.5805 21.2017L23.196 21.9898L23.8115 22.778C23.8123 22.7774 23.8194 22.7716 23.8407 22.7642C23.8633 22.7564 23.9054 22.7457 23.9738 22.7412L23.908 21.7434ZM23.196 21.9898L22.5805 21.2017L22.3015 21.4196L22.9169 22.2078L23.5324 22.9959L23.8115 22.778L23.196 21.9898ZM22.9169 22.2078L22.3015 21.4196L22.0224 21.6375L22.6378 22.4257L23.2533 23.2139L23.5324 22.9959L22.9169 22.2078ZM22.6378 22.4257L22.0224 21.6375C21.9267 21.7122 21.8532 21.7438 21.8014 21.7577L22.0603 22.7236L22.3191 23.6895C22.6652 23.5968 22.9768 23.4297 23.2533 23.2139L22.6378 22.4257ZM22.0603 22.7236L21.8014 21.7577L21.503 21.8377L21.7618 22.8036L22.0206 23.7695L22.3191 23.6895L22.0603 22.7236ZM21.7618 22.8036L21.503 21.8377L21.2045 21.9176L21.4634 22.8836L21.7222 23.8495L22.0206 23.7695L21.7618 22.8036ZM21.4634 22.8836L21.2045 21.9176C21.2121 21.9156 21.1638 21.9313 21.026 21.8962L20.7792 22.8653L20.5323 23.8343C20.9088 23.9302 21.3167 23.9581 21.7222 23.8495L21.4634 22.8836ZM20.7792 22.8653L21.026 21.8962L20.6403 21.798L20.3934 22.767L20.1466 23.7361L20.5323 23.8343L20.7792 22.8653ZM20.3934 22.767L20.6403 21.798L20.2545 21.6997L20.0077 22.6688L19.7608 23.6378L20.1466 23.7361L20.3934 22.767ZM20.0077 22.6688L20.2545 21.6997C20.0166 21.6391 19.785 21.5726 19.5596 21.5001L19.2537 22.4522L18.9478 23.4043C19.2134 23.4896 19.4844 23.5674 19.7608 23.6378L20.0077 22.6688ZM19.2537 22.4522L19.5596 21.5001L19.1914 21.3818L18.8855 22.3339L18.5796 23.286L18.9478 23.4043L19.2537 22.4522ZM18.8855 22.3339L19.1914 21.3818L18.8232 21.2635L18.5173 22.2156L18.2114 23.1677L18.5796 23.286L18.8855 22.3339ZM18.5173 22.2156L18.8232 21.2635C18.3395 21.1081 17.8492 21.1406 17.3936 21.3204L17.7607 22.2505L18.1277 23.1807C18.1652 23.166 18.1848 23.1644 18.1902 23.1641C18.1945 23.1639 18.1998 23.1639 18.2114 23.1677L18.5173 22.2156ZM17.7607 22.2505L17.3936 21.3204L17.0052 21.4736L17.3723 22.4038L17.7393 23.334L18.1277 23.1807L17.7607 22.2505ZM17.3723 22.4038L17.0052 21.4736L16.6168 21.6269L16.9839 22.5571L17.3509 23.4873L17.7393 23.334L17.3723 22.4038ZM16.9839 22.5571L16.6168 21.6269C16.5755 21.6432 16.5447 21.6535 16.5234 21.6597C16.5016 21.666 16.4948 21.6666 16.5007 21.6657C16.5059 21.6649 16.5332 21.6612 16.5772 21.6637C16.6214 21.6663 16.6927 21.6758 16.7778 21.7087L16.4173 22.6415L16.0568 23.5743C16.3388 23.6832 16.6088 23.6717 16.7954 23.6439C16.9907 23.6148 17.1798 23.5548 17.3509 23.4873L16.9839 22.5571ZM16.4173 22.6415L16.7778 21.7087L16.5996 21.6399L16.2391 22.5726L15.8787 23.5054L16.0568 23.5743L16.4173 22.6415ZM16.2391 22.5726L16.5996 21.6399L16.4214 21.571L16.061 22.5038L15.7005 23.4366L15.8787 23.5054L16.2391 22.5726ZM16.061 22.5038L16.4214 21.571C16.3676 21.5502 16.2801 21.5189 16.1767 21.4991C16.1246 21.4891 16.0403 21.4764 15.9378 21.4791C15.8437 21.4816 15.6608 21.4985 15.4642 21.6074C15.235 21.7343 15.0526 21.9518 14.977 22.2259C14.9118 22.4626 14.9482 22.6609 14.9749 22.7622C15.0255 22.9537 15.121 23.0897 15.1514 23.1326L15.9679 22.5553L16.7844 21.978C16.7864 21.9808 16.8645 22.0845 16.9087 22.2517C16.9322 22.3408 16.9681 22.5289 16.9052 22.7573C16.8319 23.0232 16.6545 23.2345 16.433 23.3571C16.2442 23.4616 16.0718 23.4763 15.9909 23.4784C15.9016 23.4808 15.8334 23.4697 15.8 23.4633C15.7629 23.4562 15.7362 23.4483 15.7234 23.4444C15.7096 23.4401 15.7015 23.437 15.7005 23.4366L16.061 22.5038ZM15.9679 22.5553L15.1514 23.1326L15.2365 23.253L16.053 22.6757L16.8695 22.0983L16.7844 21.978L15.9679 22.5553ZM16.053 22.6757L15.4075 23.4395L15.6769 23.6671L16.3224 22.9033L16.9679 22.1395L16.6985 21.9119L16.053 22.6757ZM16.3224 22.9033L16.1913 21.9119L16.0922 21.9251L16.2232 22.9164L16.3543 23.9078L16.4535 23.8947L16.3224 22.9033Z" fill="#EB0067"/>
</g>
<defs>
<filter id="filter0_d_584_3097" x="0" y="0" width="35.588" height="32.2065" filterUnits="userSpaceOnUse" color-interpolation-filters="sRGB">
<feFlood flood-opacity="0" result="BackgroundImageFix"/>
<feColorMatrix in="SourceAlpha" type="matrix" values="0 0 0 0 0 0 0 0 0 0 0 0 0 0 0 0 0 0 127 0" result="hardAlpha"/>
<feOffset dy="1"/>
<feGaussianBlur stdDeviation="0.5"/>
<feColorMatrix type="matrix" values="0 0 0 0 0.227451 0 0 0 0 0 0 0 0 0 0 0 0 0 0.3 0"/>
<feBlend mode="normal" in2="BackgroundImageFix" result="effect1_dropShadow_584_3097"/>
<feBlend mode="normal" in="SourceGraphic" in2="effect1_dropShadow_584_3097" result="shape"/>
</filter>
</defs>
</svg>
