<svg width="37" height="35" viewBox="0 0 37 35" fill="none" xmlns="http://www.w3.org/2000/svg">
<path d="M3.17716 29.2531V23.4306L17.8919 16.3471C19.4709 15.593 20.6832 14.9564 21.5287 14.4372C22.3865 13.9056 22.9771 13.4111 23.3004 12.9537C23.6237 12.4963 23.7853 11.9895 23.7853 11.4332V11.3961C23.7853 10.778 23.5739 10.2526 23.1512 9.81997C22.7285 9.37494 22.1192 9.04116 21.3235 8.81864C20.5402 8.58377 19.5829 8.46633 18.4514 8.46633C17.1957 8.46633 16.1078 8.62085 15.1877 8.9299C14.2676 9.22659 13.5341 9.67162 12.987 10.265C12.4524 10.846 12.1291 11.5507 12.0172 12.3789L11.9986 12.6014H2.67361L2.69226 12.416C2.91606 10.1785 3.69314 8.27471 5.0235 6.70474C6.36629 5.13476 8.20642 3.94182 10.5439 3.12593C12.8813 2.29767 15.6602 1.88354 18.8804 1.88354C21.9887 1.88354 24.637 2.22968 26.8252 2.92196C29.0135 3.61423 30.6858 4.61555 31.842 5.92593C33.0108 7.22394 33.5951 8.8001 33.5951 10.6544V10.6915C33.5951 11.8906 33.3278 12.9723 32.7932 13.9365C32.271 14.9008 31.4131 15.8217 30.2195 16.6994C29.0259 17.5648 27.4282 18.461 25.4265 19.3882L16.6051 23.616L18.9177 19.3326V26.0266L16.2134 22.7259H34.1546V29.2531H3.17716Z" fill="white"/>
<g filter="url(#filter0_d_696_3054)">
<path d="M17.3006 23.245L17.8856 24.6262L18.544 24.3473L18.742 23.6602L17.3006 23.245ZM17.4432 22.7496L16.0019 22.3344L17.4432 22.7496ZM18.3044 22.431L17.9461 23.8876L18.3044 22.431ZM19.0228 22.6078L19.3811 21.1512L19.0228 22.6078ZM20.9204 22.6669L21.7279 23.931L20.9204 22.6669ZM21.3812 22.3726L22.1887 23.6366L21.3812 22.3726ZM21.8419 22.0782L21.0344 20.8141L21.8419 22.0782ZM22.7141 21.3972L21.6869 20.3041V20.3041L22.7141 21.3972ZM23.1257 21.0104L24.1529 22.1035L23.1257 21.0104ZM23.5372 20.6237L22.5099 19.5306L23.5372 20.6237ZM24.5319 20.2345L24.5383 21.7344L24.5319 20.2345ZM25.1152 20.232L25.1088 18.732L25.1152 20.232ZM25.6984 20.2295L25.7047 21.7295L25.6984 20.2295ZM26.7197 19.7424L25.6069 18.7365L26.7197 19.7424ZM27.1577 19.2577L28.2705 20.2636L27.1577 19.2577ZM27.5958 18.7731L26.483 17.7673L27.5958 18.7731ZM28.607 18.2483L28.5021 16.752L28.607 18.2483ZM29.7533 18.168L29.8581 19.6643L29.7533 18.168ZM30.5209 17.5793L31.9347 18.0805L30.5209 17.5793ZM30.9098 16.4822L29.496 15.981L30.9098 16.4822ZM31.4791 15.5391L30.3915 14.5061L31.4791 15.5391ZM31.8539 15.1445L32.9415 16.1775L31.8539 15.1445ZM32.2286 14.7499L31.141 13.7169L32.2286 14.7499ZM32.5391 13.7879L31.0486 13.9568L32.5391 13.7879ZM32.8433 11.6091L31.8053 10.5262L32.8433 11.6091ZM33.3404 11.1326L34.3784 12.2155L33.3404 11.1326ZM33.8375 10.6561L32.7995 9.57322L33.8375 10.6561ZM33.9183 9.68157L32.7675 10.6437L33.9183 9.68157ZM33.5019 9.18357L34.6528 8.22148L33.5019 9.18357ZM33.0856 8.68557L31.9348 9.64766L33.0856 8.68557ZM31.1777 6.93731L30.2141 8.08687L31.1777 6.93731ZM30.5289 6.05127L31.9562 5.58998L30.5289 6.05127ZM30.2256 5.11268L31.6529 4.6514V4.65139L30.2256 5.11268ZM29.5068 4.70335L29.3491 3.21167L29.5068 4.70335ZM27.4056 4.50871L26.3803 5.60365L27.4056 4.50871ZM27.0056 4.13417L25.9803 5.22911L27.0056 4.13417ZM26.6056 3.75964L27.6308 2.6647L26.6056 3.75964ZM25.6945 3.11897L26.3872 1.78853L25.6945 3.11897ZM25.1834 2.85285L24.4906 4.18329L25.1834 2.85285ZM24.6723 2.58673L23.9795 3.91717L24.6723 2.58673ZM23.7473 2.09353L24.4686 0.778385L23.7473 2.09353ZM22.9193 1.63938L22.1979 2.95452L22.9193 1.63938ZM21.9405 1.55445L22.3065 3.00909L21.9405 1.55445ZM21.3756 1.6966L21.7417 3.15124V3.15124L21.3756 1.6966ZM20.8108 1.83875L20.4447 0.384103L20.8108 1.83875ZM19.7398 2.15189L20.2198 3.573L19.7398 2.15189ZM19.2336 2.32289L18.7535 0.901777L19.2336 2.32289ZM18.7274 2.49388L19.2074 3.91499L18.7274 2.49388ZM17.8025 2.91702L18.5765 4.20194L17.8025 2.91702ZM16.9653 3.4213L16.1914 2.13637L16.9653 3.4213ZM15.9097 3.49678L16.3106 2.05134L15.9097 3.49678ZM14.6358 3.14346L14.2349 4.58889L14.6358 3.14346ZM13.5644 2.84873L13.9577 1.40121L13.5644 2.84873ZM11.7189 2.71834L11.1463 1.33196L11.7189 2.71834ZM9.4873 3.49505L9.23068 2.01716L9.4873 3.49505ZM7.4589 4.3772L6.05243 3.85581L7.4589 4.3772ZM7.03896 5.51L5.63249 4.98861L7.03896 5.51ZM6.60666 6.32199L5.49466 5.31529L6.60666 6.32199ZM6.16201 6.81316L7.27402 7.81986L6.16201 6.81316ZM5.31431 7.45574L4.51039 6.18936L5.31431 7.45574ZM4.68894 7.85273L5.49286 9.11911L4.68894 7.85273ZM3.08754 11.3852L4.39212 10.6448L3.08754 11.3852ZM3.54298 12.1877L2.2384 12.9281L3.54298 12.1877ZM4.19404 12.5542L4.07115 11.0593L4.19404 12.5542ZM5.0407 12.4846L4.91781 10.9897L5.0407 12.4846ZM6.00817 12.7716L5.2446 14.0628L6.00817 12.7716ZM7.09643 13.4153L7.86 12.1241L7.09643 13.4153ZM8.13084 13.5867L8.57061 15.0208L8.13084 13.5867ZM9.11139 13.286L8.67161 11.8519L9.11139 13.286ZM10.511 13.2035L10.6225 11.7076L10.511 13.2035ZM10.9656 13.2374L10.8541 14.7332L10.9656 13.2374ZM11.7886 12.8482L12.9199 13.8331L11.7886 12.8482ZM12.1569 12.4251L11.0256 11.4402L12.1569 12.4251ZM12.5253 12.002L11.394 11.0171L12.5253 12.002ZM13.2006 11.0523L14.4965 11.8077L13.2006 11.0523ZM13.5076 10.5256L12.2117 9.77021L13.5076 10.5256ZM13.8146 9.99893L15.1105 10.7543L13.8146 9.99893ZM14.6738 9.5412L14.8597 8.05276L14.6738 9.5412ZM15.7781 9.6791L15.5923 11.1675L15.7781 9.6791ZM16.8186 9.48853L16.1146 8.16398L16.8186 9.48853ZM17.3069 9.22901L18.0108 10.5536L17.3069 9.22901ZM18.852 8.72124L18.8223 10.2209L18.852 8.72124ZM19.989 8.74374L20.0187 7.24403L19.989 8.74374ZM20.8017 9.17312L22.097 8.41668L20.8017 9.17312ZM21.0459 9.59124L22.3412 8.83481L21.0459 9.59124ZM21.2901 10.0094L19.9948 10.7658L21.2901 10.0094ZM22.1169 10.6251L22.5987 9.20459L22.1169 10.6251ZM22.6994 10.8227L23.1813 9.40219L22.6994 10.8227ZM23.282 11.0203L22.8002 12.4408L23.282 11.0203ZM23.7378 11.7347L22.281 11.3771L23.7378 11.7347ZM23.484 12.7682L24.9408 13.1258L23.484 12.7682ZM23.1628 13.8203L21.7529 13.3082L23.1628 13.8203ZM22.774 14.8909L21.3641 14.3788L22.774 14.8909ZM22.0851 15.4654L22.2037 16.9607L22.0851 15.4654ZM20.2137 15.6861L20.5987 17.1358V17.1358L20.2137 15.6861ZM19.438 15.8921L19.053 14.4423V14.4423L19.438 15.8921ZM18.5966 16.5338L19.7442 17.4998L18.5966 16.5338ZM17.6896 17.6114L18.8372 18.5773L17.6896 17.6114ZM16.8021 18.2385L16.5029 16.7686L16.8021 18.2385ZM15.9341 18.4152L15.6349 16.9453V16.9453L15.9341 18.4152ZM14.8659 18.4278L15.0438 16.9384L14.8659 18.4278ZM14.2317 18.352L14.0538 19.8414L14.2317 18.352ZM13.5976 18.2763L13.7755 16.7868L13.5976 18.2763ZM12.5892 18.7923L13.857 19.594L12.5892 18.7923ZM12.215 19.3841L10.9472 18.5824L12.215 19.3841ZM11.8407 19.9759L10.573 19.1742L11.8407 19.9759ZM11.0503 20.9471L12.061 22.0555L11.0503 20.9471ZM10.218 21.7061L9.20736 20.5977L10.218 21.7061ZM9.25295 22.0603L9.184 23.5587L9.25295 22.0603ZM8.15505 22.0098L8.224 20.5113L8.15505 22.0098ZM7.14897 22.0419L7.33601 23.5302L7.14897 22.0419ZM6.2347 22.1569L6.04766 20.6686L6.2347 22.1569ZM5.31503 22.4691L6.03883 23.7829L5.31503 22.4691ZM4.38996 22.9788L5.11376 24.2926L4.38996 22.9788ZM3.66642 23.6525L2.39325 22.8594L3.66642 23.6525ZM3.40542 24.0715L4.67858 24.8646L3.40542 24.0715ZM3.14441 24.4905L1.87125 23.6974L3.14441 24.4905ZM2.57532 26.5653L4.05001 26.8397L2.57532 26.5653ZM2.58457 28.5958L1.08885 28.709L2.58457 28.5958ZM3.06347 29.6054L1.92313 30.5798L3.06347 29.6054ZM3.50506 30.1221L2.36472 31.0966L3.50506 30.1221ZM3.94664 30.6388L5.08698 29.6643L3.94664 30.6388ZM4.87253 30.6812L5.92221 31.7527L4.87253 30.6812ZM5.35683 30.2067L4.30715 29.1352L5.35683 30.2067ZM5.84113 29.7323L4.79145 28.6608L5.84113 29.7323ZM6.91517 29.5097L6.32624 30.8892L6.91517 29.5097ZM8.09467 30.0132L8.6836 28.6336L8.09467 30.0132ZM9.16084 30.084L8.62828 28.6817L9.16084 30.084ZM9.63726 29.9031L9.1047 28.5008L9.63726 29.9031ZM10.1137 29.7222L10.6462 31.1244L10.1137 29.7222ZM11.1013 29.3543L11.6163 30.7632L11.1013 29.3543ZM11.6125 29.1675L11.0975 27.7586L11.6125 29.1675ZM12.1237 28.9806L12.6387 30.3894L12.1237 28.9806ZM13.1819 29.0086L12.6335 30.4047L13.1819 29.0086ZM13.7288 29.2234L14.2773 27.8273L13.7288 29.2234ZM14.2758 29.4383L14.8242 28.0421L14.2758 29.4383ZM15.3752 29.6895L15.4736 28.1927L15.3752 29.6895ZM16.48 29.7621L16.3815 31.2589L16.48 29.7621ZM17.5871 29.735L17.4166 28.2447L17.5871 29.735ZM18.6965 29.6081L18.867 31.0984L18.6965 29.6081ZM19.713 29.6207L19.4692 31.1008L19.713 29.6207ZM21.5824 29.8206L21.6698 31.3181L21.5824 29.8206ZM22.5507 29.7641L22.4633 28.2667L22.5507 29.7641ZM23.5569 29.7525L23.6046 28.2533L23.5569 29.7525ZM24.0789 29.7691L24.0311 31.2684L24.0789 29.7691ZM24.6009 29.7857L24.5531 31.285L24.6009 29.7857ZM25.7634 29.5653L25.2429 28.1586L25.7634 29.5653ZM27.0445 29.0913L27.565 30.4981L27.0445 29.0913ZM28.1652 29.4026L27.0366 30.3908L28.1652 29.4026ZM28.6453 29.951L29.7738 28.9629L28.6453 29.951ZM29.1254 30.4993L27.9969 31.4874L29.1254 30.4993ZM30.0015 30.8178L30.7546 32.115L30.0015 30.8178ZM30.3974 30.5879L31.1505 31.8851L30.3974 30.5879ZM30.7934 30.358L30.0403 29.0608L30.7934 30.358ZM31.7109 30.0649L31.8915 31.554L31.7109 30.0649ZM32.7541 29.9384L32.9346 31.4275L32.7541 29.9384ZM33.9371 28.9793L35.1438 29.8702L33.9371 28.9793ZM34.1881 28.1298L32.6903 28.0469L34.1881 28.1298ZM34.2491 27.0281L35.7468 27.111L34.2491 27.0281ZM34.3387 25.9092L35.8306 26.0645L34.3387 25.9092ZM34.457 24.7731L32.965 24.6178L34.457 24.7731ZM34.0652 23.84L33.1214 25.0059L34.0652 23.84ZM33.6143 23.475L34.5581 22.3091L33.6143 23.475ZM33.1634 23.11L32.2196 24.2759L33.1634 23.11ZM32.1165 22.6418L32.3722 21.1638L32.1165 22.6418ZM31.5205 22.5387L31.2648 24.0168L31.5205 22.5387ZM30.9246 22.4356L30.6688 23.9137L30.9246 22.4356ZM29.8148 22.5378L29.2584 21.1448L29.8148 22.5378ZM28.7872 22.9482L29.3437 24.3412L28.7872 22.9482ZM26.5961 23.2624L26.4989 21.7656L26.5961 23.2624ZM25.5421 23.4171L25.193 21.9583L25.5421 23.4171ZM24.5523 23.6539L24.9014 25.1128L24.5523 23.6539ZM23.6024 23.9623L23.0244 22.5782L23.6024 23.9623ZM22.6924 24.3423L23.2703 25.7265L22.6924 24.3423ZM21.6265 24.4395L21.8518 22.9565L21.6265 24.4395ZM20.4047 24.2538L20.1794 25.7368L20.4047 24.2538ZM19.3196 24.0119L18.8697 25.4428L19.3196 24.0119ZM18.371 23.7137L18.8208 22.2827L18.371 23.7137ZM17.8966 23.5567L19.3966 23.5453L17.8966 23.5567ZM17.8965 23.5489L17.6189 22.0748L16.3871 22.3069L16.3966 23.5603L17.8965 23.5489ZM17.9964 23.5301L18.274 25.0042L17.9491 22.0308L17.9964 23.5301ZM17.2085 23.284L17.7935 24.6652L17.8856 24.6262L17.3006 23.245L16.7155 21.8638L16.6235 21.9028L17.2085 23.284ZM17.3006 23.245L18.742 23.6602L18.8846 23.1648L17.4432 22.7496L16.0019 22.3344L15.8592 22.8298L17.3006 23.245ZM17.4432 22.7496L18.8846 23.1648C18.8586 23.2552 18.8008 23.3932 18.6791 23.5322C18.5531 23.6761 18.3996 23.7739 18.2504 23.8291C17.9883 23.9261 17.8353 23.8604 17.9461 23.8876L18.3044 22.431L18.6627 20.9744C18.2945 20.8839 17.7585 20.8124 17.2094 21.0155C16.5591 21.2561 16.1627 21.776 16.0019 22.3344L17.4432 22.7496ZM18.3044 22.431L17.9461 23.8876L18.6645 24.0643L19.0228 22.6078L19.3811 21.1512L18.6627 20.9744L18.3044 22.431ZM19.0228 22.6078L18.6645 24.0643L19.383 24.2411L19.7412 22.7845L20.0995 21.3279L19.3811 21.1512L19.0228 22.6078ZM19.7412 22.7845L19.383 24.2411C20.1147 24.421 20.966 24.4177 21.7279 23.931L20.9204 22.6669L20.1129 21.4028C20.1405 21.3852 20.1692 21.3718 20.1959 21.3628C20.2222 21.354 20.2404 21.3514 20.2464 21.3508C20.256 21.3499 20.2128 21.3557 20.0995 21.3279L19.7412 22.7845ZM20.9204 22.6669L21.7279 23.931L22.1887 23.6366L21.3812 22.3726L20.5737 21.1085L20.1129 21.4028L20.9204 22.6669ZM21.3812 22.3726L22.1887 23.6366L22.6494 23.3423L21.8419 22.0782L21.0344 20.8141L20.5737 21.1085L21.3812 22.3726ZM21.8419 22.0782L22.6494 23.3423C23.0375 23.0944 23.4015 22.8097 23.7414 22.4902L22.7141 21.3972L21.6869 20.3041C21.4781 20.5003 21.2606 20.6696 21.0344 20.8141L21.8419 22.0782ZM22.7141 21.3972L23.7414 22.4902L24.1529 22.1035L23.1257 21.0104L22.0984 19.9174L21.6869 20.3041L22.7141 21.3972ZM23.1257 21.0104L24.1529 22.1035L24.5644 21.7167L23.5372 20.6237L22.5099 19.5306L22.0984 19.9174L23.1257 21.0104ZM23.5372 20.6237L24.5644 21.7167C24.5686 21.7128 24.5679 21.7141 24.5619 21.7179C24.5558 21.7218 24.5476 21.7262 24.5382 21.7299C24.5289 21.7335 24.5222 21.735 24.5202 21.7354C24.5184 21.7357 24.5238 21.7345 24.5383 21.7344L24.5319 20.2345L24.5256 18.7345C23.771 18.7377 23.0707 19.0036 22.5099 19.5306L23.5372 20.6237ZM24.5319 20.2345L24.5383 21.7344L25.1215 21.732L25.1152 20.232L25.1088 18.732L24.5256 18.7345L24.5319 20.2345ZM25.1152 20.232L25.1215 21.732L25.7047 21.7295L25.6984 20.2295L25.692 18.7295L25.1088 18.732L25.1152 20.232ZM25.6984 20.2295L25.7047 21.7295C26.5686 21.7258 27.2952 21.3426 27.8324 20.7482L26.7197 19.7424L25.6069 18.7365C25.5722 18.7749 25.5676 18.7678 25.5996 18.7526C25.6146 18.7454 25.6326 18.739 25.6518 18.7347C25.6707 18.7304 25.685 18.7295 25.692 18.7295L25.6984 20.2295ZM26.7197 19.7424L27.8324 20.7482L28.2705 20.2636L27.1577 19.2577L26.0449 18.2519L25.6069 18.7365L26.7197 19.7424ZM27.1577 19.2577L28.2705 20.2636L28.7086 19.7789L27.5958 18.7731L26.483 17.7673L26.0449 18.2519L27.1577 19.2577ZM27.5958 18.7731L28.7086 19.7789C28.7305 19.7547 28.7461 19.7411 28.7543 19.7346C28.7622 19.7284 28.7637 19.7283 28.7586 19.731C28.7532 19.7337 28.7446 19.7374 28.7339 19.7404C28.7233 19.7434 28.7153 19.7444 28.7118 19.7446L28.607 18.2483L28.5021 16.752C27.6795 16.8096 26.9965 17.1992 26.483 17.7673L27.5958 18.7731ZM28.607 18.2483L28.7118 19.7446L29.285 19.7045L29.1801 18.2081L29.0753 16.7118L28.5021 16.752L28.607 18.2483ZM29.1801 18.2081L29.285 19.7045L29.8581 19.6643L29.7533 18.168L29.6484 16.6716L29.0753 16.7118L29.1801 18.2081ZM29.7533 18.168L29.8581 19.6643C30.2866 19.6343 30.7422 19.4996 31.1446 19.191C31.5457 18.8834 31.7929 18.4804 31.9347 18.0805L30.5209 17.5793L29.1071 17.078C29.1192 17.0438 29.1737 16.9218 29.3189 16.8105C29.4654 16.6981 29.602 16.6749 29.6484 16.6716L29.7533 18.168ZM30.5209 17.5793L31.9347 18.0805L32.1291 17.532L30.7154 17.0307L29.3016 16.5295L29.1071 17.078L30.5209 17.5793ZM30.7154 17.0307L32.1291 17.532L32.3236 16.9834L30.9098 16.4822L29.496 15.981L29.3016 16.5295L30.7154 17.0307ZM30.9098 16.4822L32.3236 16.9834C32.388 16.8019 32.4715 16.6723 32.5667 16.5721L31.4791 15.5391L30.3915 14.5061C29.9869 14.932 29.691 15.4311 29.496 15.981L30.9098 16.4822ZM31.4791 15.5391L32.5667 16.5721L32.9415 16.1775L31.8539 15.1445L30.7662 14.1115L30.3915 14.5061L31.4791 15.5391ZM31.8539 15.1445L32.9415 16.1775L33.3163 15.7829L32.2286 14.7499L31.141 13.7169L30.7662 14.1115L31.8539 15.1445ZM32.2286 14.7499L33.3163 15.7829C33.8883 15.1807 34.1195 14.4128 34.0296 13.6189L32.5391 13.7879L31.0486 13.9568C31.0492 13.9616 31.0444 13.9189 31.0661 13.8514C31.0886 13.7818 31.1233 13.7355 31.141 13.7169L32.2286 14.7499ZM32.5391 13.7879L34.0296 13.6189L33.9652 13.0515L32.4748 13.2205L30.9843 13.3894L31.0486 13.9568L32.5391 13.7879ZM32.4748 13.2205L33.9652 13.0515L33.9009 12.4841L32.4105 12.653L30.92 12.822L30.9843 13.3894L32.4748 13.2205ZM32.4105 12.653L33.9009 12.4841C33.9038 12.5099 33.9044 12.5437 33.899 12.5824C33.8936 12.6212 33.8835 12.6554 33.8721 12.6828C33.8494 12.7376 33.8333 12.7379 33.8812 12.692L32.8433 11.6091L31.8053 10.5262C31.2139 11.0932 30.8134 11.8811 30.92 12.822L32.4105 12.653ZM32.8433 11.6091L33.8812 12.692L34.3784 12.2155L33.3404 11.1326L32.3024 10.0497L31.8053 10.5262L32.8433 11.6091ZM33.3404 11.1326L34.3784 12.2155L34.8755 11.7389L33.8375 10.6561L32.7995 9.57322L32.3024 10.0497L33.3404 11.1326ZM33.8375 10.6561L34.8755 11.7389C35.1981 11.4297 35.5471 10.9502 35.6011 10.2981C35.6568 9.627 35.3753 9.08576 35.0691 8.71948L33.9183 9.68157L32.7675 10.6437C32.7388 10.6094 32.5827 10.3966 32.6114 10.0503C32.6245 9.89256 32.673 9.76825 32.7189 9.68586C32.741 9.64624 32.7616 9.61788 32.7757 9.60021C32.7898 9.5826 32.7988 9.57386 32.7995 9.57322L33.8375 10.6561ZM33.9183 9.68157L35.0691 8.71948L34.6528 8.22148L33.5019 9.18357L32.3511 10.1457L32.7675 10.6437L33.9183 9.68157ZM33.5019 9.18357L34.6528 8.22148L34.2364 7.72348L33.0856 8.68557L31.9348 9.64766L32.3511 10.1457L33.5019 9.18357ZM33.0856 8.68557L34.2364 7.72348C33.9022 7.32363 33.535 6.95597 33.1357 6.62126L32.1721 7.77082L31.2085 8.92038C31.4721 9.14134 31.714 9.38352 31.9348 9.64766L33.0856 8.68557ZM32.1721 7.77082L33.1357 6.62126L32.6385 6.20451L31.6749 7.35407L30.7113 8.50362L31.2085 8.92038L32.1721 7.77082ZM31.6749 7.35407L32.6385 6.20451L32.1413 5.78776L31.1777 6.93731L30.2141 8.08687L30.7113 8.50362L31.6749 7.35407ZM31.1777 6.93731L32.1413 5.78776C31.9594 5.63521 31.9472 5.56206 31.9562 5.58998L30.5289 6.05127L29.1016 6.51255C29.3128 7.1662 29.7332 7.68374 30.2141 8.08687L31.1777 6.93731ZM30.5289 6.05127L31.9562 5.58998L31.8045 5.12069L30.3772 5.58197L28.9499 6.04326L29.1016 6.51255L30.5289 6.05127ZM30.3772 5.58197L31.8045 5.12069L31.6529 4.65139L30.2256 5.11268L28.7982 5.57397L28.9499 6.04326L30.3772 5.58197ZM30.2256 5.11268L31.6529 4.65139C31.5106 4.21116 31.2183 3.76041 30.7123 3.47225C30.2336 3.1996 29.7349 3.17087 29.3491 3.21167L29.5068 4.70335L29.6645 6.19504C29.6568 6.19586 29.4669 6.21536 29.2277 6.07915C28.9613 5.92744 28.8394 5.70134 28.7982 5.57397L30.2256 5.11268ZM29.5068 4.70335L29.3491 3.21167L28.782 3.27164L28.9397 4.76332L29.0975 6.255L29.6645 6.19504L29.5068 4.70335ZM28.9397 4.76332L28.782 3.27164L28.2149 3.3316L28.3726 4.82329L28.5304 6.31497L29.0975 6.255L28.9397 4.76332ZM28.3726 4.82329L28.2149 3.3316C28.2099 3.33213 28.2491 3.32795 28.3113 3.34819C28.3752 3.36896 28.4163 3.40019 28.4308 3.41378L27.4056 4.50871L26.3803 5.60365C26.9795 6.16466 27.7392 6.39863 28.5304 6.31497L28.3726 4.82329ZM27.4056 4.50871L28.4308 3.41378L28.0308 3.03924L27.0056 4.13417L25.9803 5.22911L26.3803 5.60365L27.4056 4.50871ZM27.0056 4.13417L28.0308 3.03924L27.6308 2.6647L26.6056 3.75964L25.5803 4.85457L25.9803 5.22911L27.0056 4.13417ZM26.6056 3.75964L27.6308 2.6647C27.2595 2.31706 26.8427 2.02571 26.3872 1.78853L25.6945 3.11897L25.0017 4.44942C25.2277 4.56707 25.4183 4.70283 25.5803 4.85457L26.6056 3.75964ZM25.6945 3.11897L26.3872 1.78853L25.8762 1.52241L25.1834 2.85285L24.4906 4.18329L25.0017 4.44942L25.6945 3.11897ZM25.1834 2.85285L25.8762 1.52241L25.3651 1.25629L24.6723 2.58673L23.9795 3.91717L24.4906 4.18329L25.1834 2.85285ZM24.6723 2.58673L25.3651 1.25629C25.032 1.08283 24.7333 0.923587 24.4686 0.778385L23.7473 2.09353L23.0259 3.40868C23.3131 3.56625 23.6312 3.7358 23.9795 3.91717L24.6723 2.58673ZM23.7473 2.09353L24.4686 0.778385L24.0546 0.551309L23.3333 1.86646L22.6119 3.1816L23.0259 3.40868L23.7473 2.09353ZM23.3333 1.86646L24.0546 0.551309L23.6407 0.324232L22.9193 1.63938L22.1979 2.95452L22.6119 3.1816L23.3333 1.86646ZM22.9193 1.63938L23.6407 0.324232C22.9595 -0.0493752 22.2281 -0.0647111 21.5744 0.0998069L21.9405 1.55445L22.3065 3.00909C22.3622 2.99508 22.3687 3.00166 22.3379 2.99899C22.3223 2.99764 22.3003 2.99414 22.274 2.9863C22.2476 2.97841 22.2217 2.96756 22.1979 2.95452L22.9193 1.63938ZM21.9405 1.55445L21.5744 0.0998069L21.0096 0.241955L21.3756 1.6966L21.7417 3.15124L22.3065 3.00909L21.9405 1.55445ZM21.3756 1.6966L21.0096 0.241955L20.4447 0.384103L20.8108 1.83875L21.1769 3.29339L21.7417 3.15124L21.3756 1.6966ZM20.8108 1.83875L20.4447 0.384103C20.0331 0.487684 19.6379 0.603034 19.2597 0.730781L19.7398 2.15189L20.2198 3.573C20.5166 3.47275 20.8354 3.37934 21.1769 3.29339L20.8108 1.83875ZM19.7398 2.15189L19.2597 0.730781L18.7535 0.901777L19.2336 2.32289L19.7136 3.74399L20.2198 3.573L19.7398 2.15189ZM19.2336 2.32289L18.7535 0.901777L18.2473 1.07277L18.7274 2.49388L19.2074 3.91499L19.7136 3.74399L19.2336 2.32289ZM18.7274 2.49388L18.2473 1.07277C17.8167 1.21824 17.4086 1.40322 17.0286 1.63209L17.8025 2.91702L18.5765 4.20194C18.7546 4.09463 18.9631 3.99752 19.2074 3.91499L18.7274 2.49388ZM17.8025 2.91702L17.0286 1.63209L16.61 1.88423L17.3839 3.16916L18.1579 4.45408L18.5765 4.20194L17.8025 2.91702ZM17.3839 3.16916L16.61 1.88423L16.1914 2.13637L16.9653 3.4213L17.7392 4.70622L18.1579 4.45408L17.3839 3.16916ZM16.9653 3.4213L16.1914 2.13637C16.228 2.11433 16.2662 2.09763 16.303 2.08634C16.3394 2.07519 16.3681 2.07128 16.3851 2.07006C16.4167 2.0678 16.3973 2.07537 16.3106 2.05134L15.9097 3.49678L15.5088 4.94221C16.1854 5.12985 16.9962 5.15378 17.7392 4.70622L16.9653 3.4213ZM15.9097 3.49678L16.3106 2.05134L15.6737 1.87468L15.2728 3.32012L14.8719 4.76555L15.5088 4.94221L15.9097 3.49678ZM15.2728 3.32012L15.6737 1.87468L15.0367 1.69802L14.6358 3.14346L14.2349 4.58889L14.8719 4.76555L15.2728 3.32012ZM14.6358 3.14346L15.0367 1.69802C14.6106 1.57984 14.2508 1.48085 13.9577 1.40121L13.5644 2.84873L13.1711 4.29625C13.4573 4.37403 13.8118 4.47153 14.2349 4.58889L14.6358 3.14346ZM13.5644 2.84873L13.9577 1.40121L13.5232 1.28314L13.1298 2.73066L12.7365 4.17818L13.1711 4.29625L13.5644 2.84873ZM13.1298 2.73066L13.5232 1.28314L13.0886 1.16507L12.6953 2.61259L12.302 4.06011L12.7365 4.17818L13.1298 2.73066ZM12.6953 2.61259L13.0886 1.16507C12.3939 0.976315 11.7209 1.09458 11.1463 1.33196L11.7189 2.71834L12.2916 4.10472C12.3655 4.07422 12.3983 4.07097 12.3955 4.07127C12.3935 4.07149 12.3831 4.07243 12.3656 4.0712C12.3479 4.06995 12.3261 4.06667 12.302 4.06011L12.6953 2.61259ZM11.7189 2.71834L11.1463 1.33196L10.6044 1.55578L11.1771 2.94216L11.7498 4.32854L12.2916 4.10472L11.7189 2.71834ZM11.1771 2.94216L10.6044 1.55578L10.0626 1.7796L10.6353 3.16598L11.208 4.55235L11.7498 4.32854L11.1771 2.94216ZM10.6353 3.16598L10.0626 1.7796C9.80794 1.88479 9.53172 1.96489 9.23068 2.01716L9.4873 3.49505L9.74392 4.97293C10.2511 4.88487 10.7402 4.74559 11.208 4.55235L10.6353 3.16598ZM9.4873 3.49505L9.23068 2.01716L8.62453 2.12241L8.88115 3.6003L9.13777 5.07818L9.74392 4.97293L9.4873 3.49505ZM8.88115 3.6003L8.62453 2.12241L8.01839 2.22766L8.27501 3.70555L8.53163 5.18343L9.13777 5.07818L8.88115 3.6003ZM8.27501 3.70555L8.01839 2.22766C7.10006 2.38712 6.38226 2.96608 6.05243 3.85581L7.4589 4.3772L8.86537 4.89858C8.8566 4.92224 8.81764 5.00483 8.7211 5.08429C8.62574 5.16277 8.54315 5.18143 8.53163 5.18343L8.27501 3.70555ZM7.4589 4.3772L6.05243 3.85581L5.84246 4.42221L7.24893 4.9436L8.6554 5.46498L8.86537 4.89858L7.4589 4.3772ZM7.24893 4.9436L5.84246 4.42221L5.63249 4.98861L7.03896 5.51L8.44543 6.03139L8.6554 5.46498L7.24893 4.9436ZM7.03896 5.51L5.63249 4.98861C5.57907 5.13273 5.53436 5.23023 5.50186 5.29128C5.46718 5.35642 5.46091 5.35256 5.49466 5.31529L6.60666 6.32199L7.71867 7.32868C8.06057 6.95102 8.2846 6.46525 8.44543 6.03139L7.03896 5.51ZM6.60666 6.32199L5.49466 5.31529L5.27233 5.56088L6.38434 6.56757L7.49634 7.57427L7.71867 7.32868L6.60666 6.32199ZM6.38434 6.56757L5.27233 5.56088L5.05 5.80646L6.16201 6.81316L7.27402 7.81986L7.49634 7.57427L6.38434 6.56757ZM6.16201 6.81316L5.05 5.80646C5.06438 5.79058 5.03854 5.82106 4.93279 5.90122C4.83456 5.97568 4.69627 6.07136 4.51039 6.18936L5.31431 7.45574L6.11822 8.72212C6.54414 8.45174 6.97858 8.1462 7.27402 7.81986L6.16201 6.81316ZM5.31431 7.45574L4.51039 6.18936L3.88502 6.58635L4.68894 7.85273L5.49286 9.11911L6.11822 8.72212L5.31431 7.45574ZM4.68894 7.85273L3.88502 6.58635L3.25965 6.98334L4.06357 8.24973L4.86749 9.51611L5.49286 9.11911L4.68894 7.85273ZM4.06357 8.24973L3.25965 6.98334C2.59612 7.40457 2.04698 8.02432 1.83753 8.87066L3.2936 9.23101L4.74968 9.59135C4.74803 9.59801 4.7452 9.60601 4.74152 9.61348C4.73791 9.6208 4.73582 9.62289 4.73848 9.6195C4.744 9.61246 4.77653 9.57384 4.86749 9.51611L4.06357 8.24973ZM3.2936 9.23101L1.83753 8.87066L1.69293 9.45495L3.14901 9.81529L4.60508 10.1756L4.74968 9.59135L3.2936 9.23101ZM3.14901 9.81529L1.69293 9.45495L1.54834 10.0392L3.00441 10.3996L4.46049 10.7599L4.60508 10.1756L3.14901 9.81529ZM3.00441 10.3996L1.54834 10.0392C1.3887 10.6843 1.38941 11.432 1.78296 12.1255L3.08754 11.3852L4.39212 10.6448C4.41006 10.6765 4.42376 10.7091 4.43322 10.7405C4.44257 10.7716 4.44626 10.7964 4.44759 10.8121C4.45011 10.842 4.44338 10.8291 4.46049 10.7599L3.00441 10.3996ZM3.08754 11.3852L1.78296 12.1255L2.01068 12.5268L3.31526 11.7865L4.61984 11.0461L4.39212 10.6448L3.08754 11.3852ZM3.31526 11.7865L2.01068 12.5268L2.2384 12.9281L3.54298 12.1877L4.84757 11.4474L4.61984 11.0461L3.31526 11.7865ZM3.54298 12.1877L2.2384 12.9281C2.41736 13.2434 2.68765 13.5641 3.0838 13.7871C3.48803 14.0147 3.91953 14.0819 4.31693 14.0492L4.19404 12.5542L4.07115 11.0593C4.18633 11.0498 4.36821 11.0675 4.55542 11.1729C4.73455 11.2737 4.82042 11.3996 4.84757 11.4474L3.54298 12.1877ZM4.19404 12.5542L4.31693 14.0492L4.74026 14.0144L4.61737 12.5194L4.49448 11.0245L4.07115 11.0593L4.19404 12.5542ZM4.61737 12.5194L4.74026 14.0144L5.16359 13.9796L5.0407 12.4846L4.91781 10.9897L4.49448 11.0245L4.61737 12.5194ZM5.0407 12.4846L5.16359 13.9796C5.08837 13.9858 5.05172 13.9723 5.06763 13.9771C5.08568 13.9824 5.14371 14.0031 5.2446 14.0628L6.00817 12.7716L6.77173 11.4805C6.26532 11.181 5.62707 10.9314 4.91781 10.9897L5.0407 12.4846ZM6.00817 12.7716L5.2446 14.0628L5.78873 14.3846L6.5523 13.0934L7.31587 11.8023L6.77173 11.4805L6.00817 12.7716ZM6.5523 13.0934L5.78873 14.3846L6.33287 14.7064L7.09643 13.4153L7.86 12.1241L7.31587 11.8023L6.5523 13.0934ZM7.09643 13.4153L6.33287 14.7064C6.96774 15.0818 7.74929 15.2727 8.57061 15.0208L8.13084 13.5867L7.69107 12.1526C7.71931 12.144 7.75179 12.1377 7.78633 12.1354C7.82074 12.1332 7.8502 12.1355 7.87239 12.1392C7.91632 12.1465 7.91375 12.1559 7.86 12.1241L7.09643 13.4153ZM8.13084 13.5867L8.57061 15.0208L9.06089 14.8704L8.62111 13.4364L8.18134 12.0023L7.69107 12.1526L8.13084 13.5867ZM8.62111 13.4364L9.06089 14.8704L9.55116 14.7201L9.11139 13.286L8.67161 11.8519L8.18134 12.0023L8.62111 13.4364ZM9.11139 13.286L9.55116 14.7201C9.72181 14.6678 9.84946 14.6583 9.94478 14.6654L10.0563 13.1696L10.1678 11.6737C9.65697 11.6356 9.15466 11.7038 8.67161 11.8519L9.11139 13.286ZM10.0563 13.1696L9.94478 14.6654L10.3994 14.6993L10.511 13.2035L10.6225 11.7076L10.1678 11.6737L10.0563 13.1696ZM10.511 13.2035L10.3994 14.6993L10.8541 14.7332L10.9656 13.2374L11.0771 11.7415L10.6225 11.7076L10.511 13.2035ZM10.9656 13.2374L10.8541 14.7332C11.7382 14.7991 12.4436 14.3802 12.9199 13.8331L11.7886 12.8482L10.6573 11.8632C10.6397 11.8834 10.6692 11.8427 10.7574 11.801C10.8553 11.7547 10.9703 11.7336 11.0771 11.7415L10.9656 13.2374ZM11.7886 12.8482L12.9199 13.8331L13.2883 13.4101L12.1569 12.4251L11.0256 11.4402L10.6573 11.8632L11.7886 12.8482ZM12.1569 12.4251L13.2883 13.4101L13.6566 12.987L12.5253 12.002L11.394 11.0171L11.0256 11.4402L12.1569 12.4251ZM12.5253 12.002L13.6566 12.987C13.9692 12.6279 14.2484 12.2334 14.4965 11.8077L13.2006 11.0523L11.9047 10.2969C11.7435 10.5734 11.5725 10.812 11.394 11.0171L12.5253 12.002ZM13.2006 11.0523L14.4965 11.8077L14.8035 11.281L13.5076 10.5256L12.2117 9.77021L11.9047 10.2969L13.2006 11.0523ZM13.5076 10.5256L14.8035 11.281L15.1105 10.7543L13.8146 9.99893L12.5187 9.24354L12.2117 9.77021L13.5076 10.5256ZM13.8146 9.99893L15.1105 10.7543C15.1078 10.7591 15.046 10.861 14.8882 10.945C14.7206 11.0343 14.5653 11.0393 14.4879 11.0296L14.6738 9.5412L14.8597 8.05276C14.4142 7.99715 13.9317 8.05542 13.4776 8.29732C13.0335 8.53394 12.7262 8.88769 12.5187 9.24354L13.8146 9.99893ZM14.6738 9.5412L14.4879 11.0296L15.0401 11.0986L15.226 9.61015L15.4118 8.12171L14.8597 8.05276L14.6738 9.5412ZM15.226 9.61015L15.0401 11.0986L15.5923 11.1675L15.7781 9.6791L15.964 8.19066L15.4118 8.12171L15.226 9.61015ZM15.7781 9.6791L15.5923 11.1675C16.2647 11.2515 16.9225 11.132 17.5225 10.8131L16.8186 9.48853L16.1146 8.16398C16.0636 8.1911 16.0278 8.19862 15.964 8.19066L15.7781 9.6791ZM16.8186 9.48853L17.5225 10.8131L18.0108 10.5536L17.3069 9.22901L16.6029 7.90447L16.1146 8.16398L16.8186 9.48853ZM17.3069 9.22901L18.0108 10.5536L18.4991 10.294L17.7951 8.9695L17.0912 7.64496L16.6029 7.90447L17.3069 9.22901ZM17.7951 8.9695L18.4991 10.294C18.5924 10.2445 18.6912 10.2183 18.8223 10.2209L18.852 8.72124L18.8816 7.22153C18.2547 7.20912 17.6489 7.34852 17.0912 7.64496L17.7951 8.9695ZM18.852 8.72124L18.8223 10.2209L19.3908 10.2322L19.4205 8.73249L19.4502 7.23278L18.8816 7.22153L18.852 8.72124ZM19.4205 8.73249L19.3908 10.2322L19.9593 10.2434L19.989 8.74374L20.0187 7.24403L19.4502 7.23278L19.4205 8.73249ZM19.989 8.74374L19.9593 10.2434C19.9692 10.2436 19.8907 10.2437 19.7758 10.183C19.6502 10.1167 19.5583 10.0183 19.5064 9.92955L20.8017 9.17312L22.097 8.41668C21.6208 7.60116 20.8131 7.25975 20.0187 7.24403L19.989 8.74374ZM20.8017 9.17312L19.5064 9.92955L19.7506 10.3477L21.0459 9.59124L22.3412 8.83481L22.097 8.41668L20.8017 9.17312ZM21.0459 9.59124L19.7506 10.3477L19.9948 10.7658L21.2901 10.0094L22.5854 9.25293L22.3412 8.83481L21.0459 9.59124ZM21.2901 10.0094L19.9948 10.7658C20.3849 11.4338 20.9996 11.8301 21.635 12.0456L22.1169 10.6251L22.5987 9.20459C22.5252 9.17965 22.5052 9.16215 22.5148 9.16933C22.52 9.17318 22.5312 9.1823 22.5451 9.19768C22.5592 9.21323 22.5731 9.23195 22.5854 9.25293L21.2901 10.0094ZM22.1169 10.6251L21.635 12.0456L22.2176 12.2432L22.6994 10.8227L23.1813 9.40219L22.5987 9.20459L22.1169 10.6251ZM22.6994 10.8227L22.2176 12.2432L22.8002 12.4408L23.282 11.0203L23.7639 9.5998L23.1813 9.40219L22.6994 10.8227ZM23.282 11.0203L22.8002 12.4408C22.7989 12.4404 22.7513 12.4245 22.6817 12.3768C22.6088 12.3269 22.5093 12.2401 22.4227 12.1044C22.2247 11.7941 22.2522 11.4946 22.281 11.3771L23.7378 11.7347L25.1945 12.0923C25.308 11.6302 25.3018 11.0395 24.9519 10.491C24.6255 9.97933 24.1394 9.72719 23.7639 9.5998L23.282 11.0203ZM23.7378 11.7347L22.281 11.3771L22.1542 11.8938L23.6109 12.2515L25.0677 12.6091L25.1945 12.0923L23.7378 11.7347ZM23.6109 12.2515L22.1542 11.8938L22.0273 12.4106L23.484 12.7682L24.9408 13.1258L25.0677 12.6091L23.6109 12.2515ZM23.484 12.7682L22.0273 12.4106C21.9564 12.6994 21.8654 12.9985 21.7529 13.3082L23.1628 13.8203L24.5727 14.3323C24.7194 13.9284 24.8425 13.5261 24.9408 13.1258L23.484 12.7682ZM23.1628 13.8203L21.7529 13.3082L21.5585 13.8435L22.9684 14.3556L24.3783 14.8676L24.5727 14.3323L23.1628 13.8203ZM22.9684 14.3556L21.5585 13.8435L21.3641 14.3788L22.774 14.8909L24.1839 15.4029L24.3783 14.8676L22.9684 14.3556ZM22.774 14.8909L21.3641 14.3788C21.3658 14.3741 21.407 14.2643 21.5438 14.1502C21.6926 14.0261 21.8561 13.9788 21.9664 13.9701L22.0851 15.4654L22.2037 16.9607C22.6437 16.9258 23.0869 16.7697 23.4653 16.4541C23.8317 16.1485 24.0526 15.7645 24.1839 15.4029L22.774 14.8909ZM22.0851 15.4654L21.9664 13.9701L21.472 14.0093L21.5906 15.5046L21.7092 16.9999L22.2037 16.9607L22.0851 15.4654ZM21.5906 15.5046L21.472 14.0093L20.9775 14.0485L21.0961 15.5438L21.2147 17.0391L21.7092 16.9999L21.5906 15.5046ZM21.0961 15.5438L20.9775 14.0485C20.5779 14.0802 20.1921 14.1398 19.8288 14.2363L20.2137 15.6861L20.5987 17.1358C20.7525 17.095 20.9549 17.0598 21.2147 17.0391L21.0961 15.5438ZM20.2137 15.6861L19.8288 14.2363L19.4409 14.3393L19.8259 15.7891L20.2109 17.2388L20.5987 17.1358L20.2137 15.6861ZM19.8259 15.7891L19.4409 14.3393L19.053 14.4423L19.438 15.8921L19.823 17.3418L20.2109 17.2388L19.8259 15.7891ZM19.438 15.8921L19.053 14.4423C18.3458 14.6301 17.8176 15.1301 17.4491 15.5679L18.5966 16.5338L19.7442 17.4998C19.8463 17.3785 19.9138 17.3193 19.9435 17.2967C19.9746 17.2729 19.9338 17.3124 19.823 17.3418L19.438 15.8921ZM18.5966 16.5338L17.4491 15.5679L16.9956 16.1066L18.1431 17.0726L19.2907 18.0386L19.7442 17.4998L18.5966 16.5338ZM18.1431 17.0726L16.9956 16.1066L16.542 16.6454L17.6896 17.6114L18.8372 18.5773L19.2907 18.0386L18.1431 17.0726ZM17.6896 17.6114L16.542 16.6454C16.4505 16.7542 16.3931 16.8 16.3754 16.8125C16.3597 16.8236 16.4031 16.7889 16.5029 16.7686L16.8021 18.2385L17.1013 19.7083C17.8676 19.5524 18.4371 19.0526 18.8372 18.5773L17.6896 17.6114ZM16.8021 18.2385L16.5029 16.7686L16.0689 16.857L16.3681 18.3268L16.6673 19.7967L17.1013 19.7083L16.8021 18.2385ZM16.3681 18.3268L16.0689 16.857L15.6349 16.9453L15.9341 18.4152L16.2333 19.885L16.6673 19.7967L16.3681 18.3268ZM15.9341 18.4152L15.6349 16.9453C15.5552 16.9615 15.3715 16.9775 15.0438 16.9384L14.8659 18.4278L14.688 19.9172C15.2058 19.979 15.7343 19.9866 16.2333 19.885L15.9341 18.4152ZM14.8659 18.4278L15.0438 16.9384L14.4097 16.8626L14.2317 18.352L14.0538 19.8414L14.688 19.9172L14.8659 18.4278ZM14.2317 18.352L14.4097 16.8626L13.7755 16.7868L13.5976 18.2763L13.4197 19.7657L14.0538 19.8414L14.2317 18.352ZM13.5976 18.2763L13.7755 16.7868C13.3072 16.7309 12.8115 16.7934 12.3451 17.0321C11.8874 17.2663 11.556 17.6196 11.3214 17.9906L12.5892 18.7923L13.857 19.594C13.8719 19.5704 13.8332 19.6405 13.7117 19.7027C13.5814 19.7694 13.4652 19.7711 13.4197 19.7657L13.5976 18.2763ZM12.5892 18.7923L11.3214 17.9906L10.9472 18.5824L12.215 19.3841L13.4827 20.1858L13.857 19.594L12.5892 18.7923ZM12.215 19.3841L10.9472 18.5824L10.573 19.1742L11.8407 19.9759L13.1085 20.7776L13.4827 20.1858L12.215 19.3841ZM11.8407 19.9759L10.573 19.1742C10.3785 19.4817 10.1975 19.6948 10.0397 19.8387L11.0503 20.9471L12.061 22.0555C12.4581 21.6935 12.804 21.2591 13.1085 20.7776L11.8407 19.9759ZM11.0503 20.9471L10.0397 19.8387L9.62351 20.2182L10.6342 21.3266L11.6449 22.435L12.061 22.0555L11.0503 20.9471ZM10.6342 21.3266L9.62351 20.2182L9.20736 20.5977L10.218 21.7061L11.2287 22.8144L11.6449 22.435L10.6342 21.3266ZM10.218 21.7061L9.20736 20.5977C9.19849 20.6058 9.21349 20.5903 9.25187 20.5762C9.2694 20.5698 9.28627 20.5657 9.30066 20.5636C9.3148 20.5615 9.32251 20.5619 9.32189 20.5619L9.25295 22.0603L9.184 23.5587C9.95825 23.5943 10.6656 23.328 11.2287 22.8144L10.218 21.7061ZM9.25295 22.0603L9.32189 20.5619L8.77295 20.5366L8.704 22.035L8.63505 23.5334L9.184 23.5587L9.25295 22.0603ZM8.704 22.035L8.77295 20.5366L8.224 20.5113L8.15505 22.0098L8.08611 23.5082L8.63505 23.5334L8.704 22.035ZM8.15505 22.0098L8.224 20.5113C7.78834 20.4913 7.36591 20.5029 6.96193 20.5537L7.14897 22.0419L7.33601 23.5302C7.54154 23.5044 7.78983 23.4945 8.08611 23.5082L8.15505 22.0098ZM7.14897 22.0419L6.96193 20.5537L6.50479 20.6111L6.69184 22.0994L6.87888 23.5877L7.33601 23.5302L7.14897 22.0419ZM6.69184 22.0994L6.50479 20.6111L6.04766 20.6686L6.2347 22.1569L6.42174 23.6451L6.87888 23.5877L6.69184 22.0994ZM6.2347 22.1569L6.04766 20.6686C5.52909 20.7337 5.04179 20.9071 4.59123 21.1553L5.31503 22.4691L6.03883 23.7829C6.20498 23.6914 6.3308 23.6566 6.42174 23.6451L6.2347 22.1569ZM5.31503 22.4691L4.59123 21.1553L4.12869 21.4101L4.85249 22.7239L5.57629 24.0378L6.03883 23.7829L5.31503 22.4691ZM4.85249 22.7239L4.12869 21.4101L3.66616 21.6649L4.38996 22.9788L5.11376 24.2926L5.57629 24.0378L4.85249 22.7239ZM4.38996 22.9788L3.66616 21.6649C3.14937 21.9496 2.7123 22.3473 2.39325 22.8594L3.66642 23.6525L4.93959 24.4457C4.96854 24.3992 5.01383 24.3476 5.11376 24.2926L4.38996 22.9788ZM3.66642 23.6525L2.39325 22.8594L2.13225 23.2784L3.40542 24.0715L4.67858 24.8646L4.93959 24.4457L3.66642 23.6525ZM3.40542 24.0715L2.13225 23.2784L1.87125 23.6974L3.14441 24.4905L4.41758 25.2836L4.67858 24.8646L3.40542 24.0715ZM3.14441 24.4905L1.87125 23.6974C1.58567 24.1558 1.40406 24.6601 1.30602 25.187L2.78071 25.4614L4.2554 25.7358C4.2943 25.5268 4.35515 25.3838 4.41758 25.2836L3.14441 24.4905ZM2.78071 25.4614L1.30602 25.187L1.20333 25.739L2.67802 26.0133L4.15271 26.2877L4.2554 25.7358L2.78071 25.4614ZM2.67802 26.0133L1.20333 25.739L1.10063 26.2909L2.57532 26.5653L4.05001 26.8397L4.15271 26.2877L2.67802 26.0133ZM2.57532 26.5653L1.10063 26.2909C1.01156 26.7696 0.978309 27.249 1.01422 27.7233L2.50994 27.6101L4.00566 27.4968C3.99182 27.314 4.00216 27.0968 4.05001 26.8397L2.57532 26.5653ZM2.50994 27.6101L1.01422 27.7233L1.05153 28.2162L2.54725 28.1029L4.04297 27.9897L4.00566 27.4968L2.50994 27.6101ZM2.54725 28.1029L1.05153 28.2162L1.08885 28.709L2.58457 28.5958L4.08029 28.4825L4.04297 27.9897L2.54725 28.1029ZM2.58457 28.5958L1.08885 28.709C1.1453 29.4547 1.49788 30.0822 1.92313 30.5798L3.06347 29.6054L4.2038 28.6309C4.04027 28.4395 4.07358 28.394 4.08029 28.4825L2.58457 28.5958ZM3.06347 29.6054L1.92313 30.5798L2.36472 31.0966L3.50506 30.1221L4.64539 29.1476L4.2038 28.6309L3.06347 29.6054ZM3.50506 30.1221L2.36472 31.0966L2.80631 31.6133L3.94664 30.6388L5.08698 29.6643L4.64539 29.1476L3.50506 30.1221ZM3.94664 30.6388L2.80631 31.6133C3.0963 31.9527 3.60058 32.3729 4.33042 32.4062C5.06147 32.4396 5.60234 32.066 5.92221 31.7527L4.87253 30.6812L3.82285 29.6096C3.82737 29.6052 3.8798 29.554 3.9856 29.5033C4.09966 29.4488 4.26634 29.4002 4.4674 29.4093C4.66831 29.4185 4.82921 29.482 4.93679 29.546C5.03661 29.6054 5.0835 29.6603 5.08698 29.6643L3.94664 30.6388ZM4.87253 30.6812L5.92221 31.7527L6.40651 31.2783L5.35683 30.2067L4.30715 29.1352L3.82285 29.6096L4.87253 30.6812ZM5.35683 30.2067L6.40651 31.2783L6.8908 30.8038L5.84113 29.7323L4.79145 28.6608L4.30715 29.1352L5.35683 30.2067ZM5.84113 29.7323L6.8908 30.8038C6.89554 30.7992 6.81844 30.8746 6.65627 30.9082C6.4871 30.9433 6.36238 30.9046 6.32624 30.8892L6.91517 29.5097L7.50411 28.1301C7.0748 27.9468 6.57449 27.8614 6.0473 27.9707C5.52712 28.0785 5.10958 28.3491 4.79145 28.6608L5.84113 29.7323ZM6.91517 29.5097L6.32624 30.8892L6.91599 31.141L7.50492 29.7614L8.09386 28.3819L7.50411 28.1301L6.91517 29.5097ZM7.50492 29.7614L6.91599 31.141L7.50574 31.3927L8.09467 30.0132L8.6836 28.6336L8.09386 28.3819L7.50492 29.7614ZM8.09467 30.0132L7.50574 31.3927C8.15916 31.6717 8.92553 31.7779 9.69339 31.4863L9.16084 30.084L8.62828 28.6817C8.65179 28.6728 8.67686 28.6663 8.70154 28.6628C8.726 28.6593 8.74472 28.6594 8.75552 28.6601C8.77635 28.6615 8.755 28.6641 8.6836 28.6336L8.09467 30.0132ZM9.16084 30.084L9.69339 31.4863L10.1698 31.3054L9.63726 29.9031L9.1047 28.5008L8.62828 28.6817L9.16084 30.084ZM9.63726 29.9031L10.1698 31.3054L10.6462 31.1244L10.1137 29.7222L9.58112 28.3199L9.1047 28.5008L9.63726 29.9031ZM10.1137 29.7222L10.6462 31.1244C10.9576 31.0062 11.281 30.8857 11.6163 30.7632L11.1013 29.3543L10.5863 27.9455C10.24 28.0721 9.90494 28.1969 9.58112 28.3199L10.1137 29.7222ZM11.1013 29.3543L11.6163 30.7632L12.1275 30.5763L11.6125 29.1675L11.0975 27.7586L10.5863 27.9455L11.1013 29.3543ZM11.6125 29.1675L12.1275 30.5763L12.6387 30.3894L12.1237 28.9806L11.6087 27.5718L11.0975 27.7586L11.6125 29.1675ZM12.1237 28.9806L12.6387 30.3894C12.6394 30.3891 12.6354 30.3906 12.6275 30.3919C12.6195 30.3933 12.6113 30.3938 12.6042 30.3936C12.5973 30.3934 12.595 30.3927 12.5986 30.3934C12.6024 30.3942 12.6138 30.397 12.6335 30.4047L13.1819 29.0086L13.7303 27.6124C13.0541 27.3468 12.3222 27.3109 11.6087 27.5718L12.1237 28.9806ZM13.1819 29.0086L12.6335 30.4047L13.1804 30.6196L13.7288 29.2234L14.2773 27.8273L13.7303 27.6124L13.1819 29.0086ZM13.7288 29.2234L13.1804 30.6196L13.7274 30.8344L14.2758 29.4383L14.8242 28.0421L14.2773 27.8273L13.7288 29.2234ZM14.2758 29.4383L13.7274 30.8344C14.2271 31.0307 14.7449 31.1513 15.2767 31.1862L15.3752 29.6895L15.4736 28.1927C15.2689 28.1792 15.0539 28.1323 14.8242 28.0421L14.2758 29.4383ZM15.3752 29.6895L15.2767 31.1862L15.8291 31.2226L15.9276 29.7258L16.026 28.229L15.4736 28.1927L15.3752 29.6895ZM15.9276 29.7258L15.8291 31.2226L16.3815 31.2589L16.48 29.7621L16.5784 28.2654L16.026 28.229L15.9276 29.7258ZM16.48 29.7621L16.3815 31.2589C16.8402 31.2891 17.2992 31.2777 17.7576 31.2253L17.5871 29.735L17.4166 28.2447C17.1353 28.2769 16.8563 28.2837 16.5784 28.2654L16.48 29.7621ZM17.5871 29.735L17.7576 31.2253L18.3123 31.1618L18.1418 29.6716L17.9713 28.1813L17.4166 28.2447L17.5871 29.735ZM18.1418 29.6716L18.3123 31.1618L18.867 31.0984L18.6965 29.6081L18.5261 28.1178L17.9713 28.1813L18.1418 29.6716ZM18.6965 29.6081L18.867 31.0984C19.1247 31.0689 19.3217 31.0765 19.4692 31.1008L19.713 29.6207L19.9568 28.1406C19.4886 28.0635 19.008 28.0627 18.5261 28.1178L18.6965 29.6081ZM19.713 29.6207L19.4692 31.1008L19.931 31.1768L20.1747 29.6968L20.4185 28.2167L19.9568 28.1406L19.713 29.6207ZM20.1747 29.6968L19.931 31.1768L20.3927 31.2529L20.6365 29.7728L20.8803 28.2928L20.4185 28.2167L20.1747 29.6968ZM20.6365 29.7728L20.3927 31.2529C20.8138 31.3222 21.2403 31.3431 21.6698 31.3181L21.5824 29.8206L21.495 28.3232C21.2789 28.3358 21.0748 28.3248 20.8803 28.2928L20.6365 29.7728ZM21.5824 29.8206L21.6698 31.3181L22.1539 31.2898L22.0665 29.7924L21.9792 28.2949L21.495 28.3232L21.5824 29.8206ZM22.0665 29.7924L22.1539 31.2898L22.6381 31.2616L22.5507 29.7641L22.4633 28.2667L21.9792 28.2949L22.0665 29.7924ZM22.5507 29.7641L22.6381 31.2616C22.9126 31.2456 23.2028 31.242 23.5091 31.2517L23.5569 29.7525L23.6046 28.2533C23.215 28.2408 22.8344 28.245 22.4633 28.2667L22.5507 29.7641ZM23.5569 29.7525L23.5091 31.2517L24.0311 31.2684L24.0789 29.7691L24.1266 28.2699L23.6046 28.2533L23.5569 29.7525ZM24.0789 29.7691L24.0311 31.2684L24.5531 31.285L24.6009 29.7857L24.6486 28.2865L24.1266 28.2699L24.0789 29.7691ZM24.6009 29.7857L24.5531 31.285C25.1443 31.3038 25.7284 31.1777 26.284 30.9721L25.7634 29.5653L25.2429 28.1586C24.9444 28.269 24.7535 28.2898 24.6486 28.2865L24.6009 29.7857ZM25.7634 29.5653L26.284 30.9721L26.9245 30.7351L26.404 29.3283L25.8834 27.9216L25.2429 28.1586L25.7634 29.5653ZM26.404 29.3283L26.9245 30.7351L27.565 30.4981L27.0445 29.0913L26.524 27.6845L25.8834 27.9216L26.404 29.3283ZM27.0445 29.0913L27.565 30.4981C27.5361 30.5088 27.4108 30.5424 27.2434 30.4959C27.0848 30.4518 27.0205 30.3723 27.0366 30.3908L28.1652 29.4026L29.2937 28.4145C28.9898 28.0674 28.5786 27.7532 28.0464 27.6054C27.5055 27.4551 26.98 27.5158 26.524 27.6845L27.0445 29.0913ZM28.1652 29.4026L27.0366 30.3908L27.5167 30.9391L28.6453 29.951L29.7738 28.9629L29.2937 28.4145L28.1652 29.4026ZM28.6453 29.951L27.5167 30.9391L27.9969 31.4874L29.1254 30.4993L30.2539 29.5112L29.7738 28.9629L28.6453 29.951ZM29.1254 30.4993L27.9969 31.4874C28.2383 31.7632 28.591 32.088 29.072 32.2628C29.627 32.4646 30.2303 32.4194 30.7546 32.115L30.0015 30.8178L29.2484 29.5205C29.3558 29.4582 29.5001 29.4039 29.6716 29.3894C29.8423 29.375 29.989 29.4041 30.0969 29.4433C30.286 29.5121 30.3326 29.601 30.2539 29.5112L29.1254 30.4993ZM30.0015 30.8178L30.7546 32.115L31.1505 31.8851L30.3974 30.5879L29.6443 29.2906L29.2484 29.5205L30.0015 30.8178ZM30.3974 30.5879L31.1505 31.8851L31.5465 31.6553L30.7934 30.358L30.0403 29.0608L29.6443 29.2906L30.3974 30.5879ZM30.7934 30.358L31.5465 31.6553C31.6106 31.6181 31.7161 31.5753 31.8915 31.554L31.7109 30.0649L31.5304 28.5758C31.0104 28.6389 30.5042 28.7915 30.0403 29.0608L30.7934 30.358ZM31.7109 30.0649L31.8915 31.554L32.4131 31.4908L32.2325 30.0017L32.0519 28.5126L31.5304 28.5758L31.7109 30.0649ZM32.2325 30.0017L32.4131 31.4908L32.9346 31.4275L32.7541 29.9384L32.5735 28.4493L32.0519 28.5126L32.2325 30.0017ZM32.7541 29.9384L32.9346 31.4275C33.5185 31.3567 34.2232 31.1171 34.7028 30.4675L33.4961 29.5765L32.2894 28.6856C32.3749 28.5697 32.474 28.5017 32.5428 28.4681C32.6038 28.4384 32.6247 28.4431 32.5735 28.4493L32.7541 29.9384ZM33.4961 29.5765L34.7028 30.4675L34.9233 30.1689L33.7166 29.2779L32.5098 28.387L32.2894 28.6856L33.4961 29.5765ZM33.7166 29.2779L34.9233 30.1689L35.1438 29.8702L33.9371 28.9793L32.7303 28.0883L32.5098 28.387L33.7166 29.2779ZM33.9371 28.9793L35.1438 29.8702C35.5297 29.3475 35.6567 28.7385 35.6858 28.2127L34.1881 28.1298L32.6903 28.0469C32.6878 28.093 32.6837 28.1278 32.6797 28.1526C32.6758 28.1775 32.6723 28.1901 32.6715 28.1926C32.6699 28.198 32.6821 28.1536 32.7303 28.0883L33.9371 28.9793ZM34.1881 28.1298L35.6858 28.2127L35.7163 27.6619L34.2186 27.579L32.7208 27.496L32.6903 28.0469L34.1881 28.1298ZM34.2186 27.579L35.7163 27.6619L35.7468 27.111L34.2491 27.0281L32.7514 26.9452L32.7208 27.496L34.2186 27.579ZM34.2491 27.0281L35.7468 27.111C35.7657 26.7688 35.7936 26.42 35.8306 26.0645L34.3387 25.9092L32.8468 25.7539C32.8049 26.1559 32.7731 26.553 32.7514 26.9452L34.2491 27.0281ZM34.3387 25.9092L35.8306 26.0645L35.8898 25.4965L34.3978 25.3412L32.9059 25.1859L32.8468 25.7539L34.3387 25.9092ZM34.3978 25.3412L35.8898 25.4965L35.9489 24.9284L34.457 24.7731L32.965 24.6178L32.9059 25.1859L34.3978 25.3412ZM34.457 24.7731L35.9489 24.9284C36.0419 24.0354 35.6965 23.2307 35.009 22.6742L34.0652 23.84L33.1214 25.0059C33.1077 24.9948 33.0494 24.9409 33.0055 24.8365C32.9613 24.7312 32.9621 24.6463 32.965 24.6178L34.457 24.7731ZM34.0652 23.84L35.009 22.6742L34.5581 22.3091L33.6143 23.475L32.6705 24.6409L33.1214 25.0059L34.0652 23.84ZM33.6143 23.475L34.5581 22.3091L34.1072 21.9441L33.1634 23.11L32.2196 24.2759L32.6705 24.6409L33.6143 23.475ZM33.1634 23.11L34.1072 21.9441C33.599 21.5327 33.0106 21.2743 32.3722 21.1638L32.1165 22.6418L31.8608 24.1199C32.017 24.1469 32.1265 24.2005 32.2196 24.2759L33.1634 23.11ZM32.1165 22.6418L32.3722 21.1638L31.7763 21.0607L31.5205 22.5387L31.2648 24.0168L31.8608 24.1199L32.1165 22.6418ZM31.5205 22.5387L31.7763 21.0607L31.1803 20.9576L30.9246 22.4356L30.6688 23.9137L31.2648 24.0168L31.5205 22.5387ZM30.9246 22.4356L31.1803 20.9576C30.536 20.8461 29.8823 20.8955 29.2584 21.1448L29.8148 22.5378L30.3713 23.9307C30.4324 23.9063 30.5186 23.8877 30.6688 23.9137L30.9246 22.4356ZM29.8148 22.5378L29.2584 21.1448L28.7446 21.35L29.301 22.743L29.8575 24.136L30.3713 23.9307L29.8148 22.5378ZM29.301 22.743L28.7446 21.35L28.2308 21.5553L28.7872 22.9482L29.3437 24.3412L29.8575 24.136L29.301 22.743ZM28.7872 22.9482L28.2308 21.5553C28.0368 21.6328 27.8343 21.6788 27.6171 21.6929L27.7143 23.1898L27.8115 24.6866C28.3398 24.6523 28.8526 24.5374 29.3437 24.3412L28.7872 22.9482ZM27.7143 23.1898L27.6171 21.6929L27.058 21.7293L27.1552 23.2261L27.2524 24.723L27.8115 24.6866L27.7143 23.1898ZM27.1552 23.2261L27.058 21.7293L26.4989 21.7656L26.5961 23.2624L26.6933 24.7593L27.2524 24.723L27.1552 23.2261ZM26.5961 23.2624L26.4989 21.7656C26.0496 21.7947 25.6135 21.8577 25.193 21.9583L25.5421 23.4171L25.8911 24.876C26.1305 24.8187 26.397 24.7785 26.6933 24.7593L26.5961 23.2624ZM25.5421 23.4171L25.193 21.9583L24.6981 22.0767L25.0472 23.5355L25.3962 24.9944L25.8911 24.876L25.5421 23.4171ZM25.0472 23.5355L24.6981 22.0767L24.2033 22.1951L24.5523 23.6539L24.9014 25.1128L25.3962 24.9944L25.0472 23.5355ZM24.5523 23.6539L24.2033 22.1951C23.7977 22.2922 23.4043 22.4196 23.0244 22.5782L23.6024 23.9623L24.1804 25.3465C24.4072 25.2518 24.6471 25.1736 24.9014 25.1128L24.5523 23.6539ZM23.6024 23.9623L23.0244 22.5782L22.5694 22.7682L23.1474 24.1523L23.7253 25.5365L24.1804 25.3465L23.6024 23.9623ZM23.1474 24.1523L22.5694 22.7682L22.1144 22.9581L22.6924 24.3423L23.2703 25.7265L23.7253 25.5365L23.1474 24.1523ZM22.6924 24.3423L22.1144 22.9581C22.114 22.9583 22.1106 22.9597 22.103 22.9616C22.0953 22.9634 22.0821 22.966 22.0622 22.9678C22.0219 22.9715 21.9538 22.972 21.8518 22.9565L21.6265 24.4395L21.4011 25.9225C22.0119 26.0153 22.6564 25.9829 23.2703 25.7265L22.6924 24.3423ZM21.6265 24.4395L21.8518 22.9565L21.241 22.8637L21.0156 24.3467L20.7902 25.8296L21.4011 25.9225L21.6265 24.4395ZM21.0156 24.3467L21.241 22.8637L20.6301 22.7709L20.4047 24.2538L20.1794 25.7368L20.7902 25.8296L21.0156 24.3467ZM20.4047 24.2538L20.6301 22.7709C20.2815 22.7179 19.9972 22.6525 19.7694 22.5809L19.3196 24.0119L18.8697 25.4428C19.2744 25.5701 19.7135 25.666 20.1794 25.7368L20.4047 24.2538ZM19.3196 24.0119L19.7694 22.5809L19.2951 22.4318L18.8453 23.8628L18.3954 25.2937L18.8697 25.4428L19.3196 24.0119ZM18.8453 23.8628L19.2951 22.4318L18.8208 22.2827L18.371 23.7137L17.9211 25.1446L18.3954 25.2937L18.8453 23.8628ZM18.371 23.7137L18.8208 22.2827C18.6643 22.2335 18.5544 22.1983 18.4864 22.1758C18.4501 22.1638 18.4374 22.1592 18.439 22.1598C18.4404 22.1603 18.4455 22.1622 18.4531 22.1651C18.4595 22.1676 18.4752 22.1737 18.496 22.1826C18.5073 22.1875 18.5634 22.2113 18.6322 22.25C18.6599 22.2655 18.749 22.3158 18.8501 22.399C18.8991 22.4394 18.9998 22.5267 19.1 22.6614C19.1851 22.7757 19.3931 23.0868 19.3966 23.5453L17.8966 23.5567L16.3966 23.5681C16.4001 24.0268 16.6082 24.3381 16.6934 24.4526C16.7938 24.5875 16.8947 24.6751 16.944 24.7156C17.0457 24.7994 17.1358 24.8503 17.1647 24.8665C17.236 24.9065 17.2958 24.9322 17.312 24.9391C17.3572 24.9585 17.397 24.9731 17.4135 24.9791C17.4547 24.9941 17.5013 25.0098 17.5441 25.024C17.6341 25.0537 17.7614 25.0944 17.9211 25.1446L18.371 23.7137ZM17.8966 23.5567L19.3966 23.5453L19.3965 23.5375L17.8965 23.5489L16.3966 23.5603L16.3966 23.5681L17.8966 23.5567ZM17.8965 23.5489L18.1742 25.023L18.274 25.0042L17.9964 23.5301L17.7187 22.056L17.6189 22.0748L17.8965 23.5489ZM17.9964 23.5301L17.9491 22.0308L17.8492 22.034L17.8964 23.5332L17.9437 25.0325L18.0436 25.0293L17.9964 23.5301Z" fill="#EB0067"/>
</g>
<defs>
<filter id="filter0_d_696_3054" x="0" y="0" width="36.9638" height="34.4083" filterUnits="userSpaceOnUse" color-interpolation-filters="sRGB">
<feFlood flood-opacity="0" result="BackgroundImageFix"/>
<feColorMatrix in="SourceAlpha" type="matrix" values="0 0 0 0 0 0 0 0 0 0 0 0 0 0 0 0 0 0 127 0" result="hardAlpha"/>
<feOffset dy="1"/>
<feGaussianBlur stdDeviation="0.5"/>
<feColorMatrix type="matrix" values="0 0 0 0 0.227451 0 0 0 0 0 0 0 0 0 0 0 0 0 0.3 0"/>
<feBlend mode="normal" in2="BackgroundImageFix" result="effect1_dropShadow_696_3054"/>
<feBlend mode="normal" in="SourceGraphic" in2="effect1_dropShadow_696_3054" result="shape"/>
</filter>
</defs>
</svg>
